<?xml version="1.0" standalone="no"?>
<!DOCTYPE svg PUBLIC "-//W3C//DTD SVG 20010904//EN"
 "http://www.w3.org/TR/2001/REC-SVG-20010904/DTD/svg10.dtd">
<svg version="1.0" xmlns="http://www.w3.org/2000/svg"
 width="200.000000pt" height="200.000000pt" viewBox="0 0 200.000000 200.000000"
 preserveAspectRatio="xMidYMid meet">

<g transform="translate(0.000000,200.000000) scale(0.100000,-0.100000)"
fill="#000000" stroke="none">
<path d="M518 1943 c0 -32 -1 -73 -1 -91 0 -22 -3 -29 -8 -20 -7 10 -9 10 -10
-2 -3 -47 -7 -63 -20 -71 -8 -5 -10 -9 -6 -9 14 0 -27 -60 -41 -60 -7 0 -11
-4 -8 -9 5 -8 -21 -36 -107 -115 -16 -15 -32 -24 -36 -22 -4 3 -17 -3 -28 -14
-12 -10 -24 -16 -27 -13 -3 4 -6 2 -6 -3 0 -9 -42 -13 -162 -16 l-58 -1 0
-749 0 -748 590 0 590 0 0 54 c0 34 5 56 13 59 6 3 -11 6 -39 6 -28 1 -72 4
-98 7 l-46 7 0 228 0 229 118 0 c134 -1 197 -12 229 -42 28 -26 39 -81 24
-114 -16 -35 -4 -30 14 7 9 17 19 28 22 25 4 -3 13 -1 20 6 11 9 16 9 23 -2 6
-9 10 8 12 50 l3 65 120 3 c164 4 201 -2 241 -42 18 -18 36 -45 40 -59 8 -35
-3 -92 -22 -112 -9 -8 -12 -15 -7 -15 5 0 14 5 20 11 11 11 17 5 68 -74 22
-33 45 -114 58 -197 2 -14 5 408 6 938 l1 962 -740 0 -740 0 -2 -57z m422
-1404 l0 -52 -110 5 -110 4 0 -48 0 -48 95 0 95 0 0 -45 0 -45 -95 0 -95 0 0
-90 0 -90 -55 0 -55 0 0 225 0 224 98 4 c53 1 127 4 165 5 l67 2 0 -51z m-458
3 c29 -29 33 -39 33 -88 0 -49 -3 -59 -30 -82 l-30 -27 26 -26 c21 -20 28 -39
34 -90 3 -35 9 -72 12 -82 4 -16 -1 -18 -49 -15 l-53 3 -11 68 c-15 91 -28
102 -112 102 l-67 0 -3 -87 -3 -88 -49 0 -50 0 0 226 0 225 160 -3 160 -3 32
-33z"/>
<path d="M230 440 l0 -60 73 0 c84 0 107 15 107 68 0 42 -22 52 -109 52 l-71
0 0 -60z"/>
<path d="M1120 455 l0 -45 63 0 c68 0 87 10 87 47 0 30 -28 43 -94 43 l-56 0
0 -45z"/>
<path d="M1592 440 l2 -55 3 48 4 47 52 0 c76 0 95 -8 100 -39 l4 -26 2 26 c2
38 -15 47 -97 51 l-72 3 2 -55z"/>
<path d="M1349 383 c-13 -16 -12 -17 4 -4 16 13 21 21 13 21 -2 0 -10 -8 -17
-17z"/>
<path d="M1120 275 l0 -55 38 0 c34 0 39 4 57 41 23 49 43 59 63 33 9 -12 13
-13 10 -4 -7 25 -49 40 -110 40 l-58 0 0 -55z"/>
<path d="M1276 243 c-6 -14 -5 -15 5 -6 7 7 10 15 7 18 -3 3 -9 -2 -12 -12z"/>
<path d="M1980 30 c0 -26 6 -26 13 0 3 11 1 20 -4 20 -5 0 -9 -9 -9 -20z"/>
</g>
</svg>
