<?xml version="1.0" encoding="UTF-8" standalone="no"?>
<svg
   xmlns:dc="http://purl.org/dc/elements/1.1/"
   xmlns:cc="http://creativecommons.org/ns#"
   xmlns:rdf="http://www.w3.org/1999/02/22-rdf-syntax-ns#"
   xmlns:svg="http://www.w3.org/2000/svg"
   xmlns="http://www.w3.org/2000/svg"
   viewBox="0 0 571.12 428.94666"
   height="428.94666"
   width="571.12"
   xml:space="preserve"
   id="svg2"
   version="1.1"><metadata
     id="metadata8"><rdf:RDF><cc:Work
         rdf:about=""><dc:format>image/svg+xml</dc:format><dc:type
           rdf:resource="http://purl.org/dc/dcmitype/StillImage" /></cc:Work></rdf:RDF></metadata><defs
     id="defs6" /><g
     transform="matrix(1.3333333,0,0,-1.3333333,0,428.94667)"
     id="g10"><g
       transform="scale(0.1)"
       id="g12"><path
         id="path14"
         style="fill:#231f20;fill-opacity:1;fill-rule:nonzero;stroke:none"
         d="m 150.336,927.371 c 7.187,0 14.379,0.988 21.57,2.981 7.18,1.988 13.774,5.359 19.774,10.136 5.988,4.774 10.867,11.121 14.66,19.082 3.805,7.942 5.695,17.879 5.695,29.789 0,20.661 -5.797,35.871 -17.359,45.611 -11.598,9.72 -26.574,14.6 -44.938,14.6 H 87.4453 V 927.371 Z m 151.555,67.09 c 0,-11.18 -1.411,-22.25 -4.2,-33.242 -2.789,-10.981 -7.089,-21.18 -12.871,-30.551 -5.797,-9.379 -13.09,-17.77 -21.867,-25.148 -8.789,-7.411 -19.16,-13.09 -31.144,-17.079 v -0.601 c 17.156,-5.59 29.535,-14.969 37.132,-28.141 7.582,-13.187 13.567,-27.758 17.969,-43.738 l 32.949,-114.992 h -88.05 c -5.204,17.961 -10.387,35.832 -15.575,53.59 -5.203,17.769 -10.386,35.839 -15.578,54.222 -6.39,22.75 -15.277,38.137 -26.652,46.11 -11.379,7.988 -25.457,11.988 -42.234,11.988 H 87.4453 V 700.969 H 0 v 411.501 h 167.113 c 23.567,0 43.821,-3.11 60.801,-9.28 16.969,-6.2 30.945,-14.69 41.926,-25.47 10.969,-10.78 19.062,-23.36 24.265,-37.73 5.184,-14.38 7.786,-29.56 7.786,-45.529" /><path
         id="path16"
         style="fill:#231f20;fill-opacity:1;fill-rule:nonzero;stroke:none"
         d="m 455.754,694.379 c -19.566,0 -35.242,2.601 -47.012,7.781 -11.797,5.192 -20.879,12.379 -27.254,21.559 -6.394,9.179 -10.593,19.769 -12.582,31.75 -2.004,11.98 -2.992,24.961 -2.992,38.929 v 200.661 h 85.656 v -182.09 c 0,-7.18 0.375,-13.981 1.192,-20.36 0.797,-6.39 2.586,-11.98 5.386,-16.781 2.793,-4.777 6.79,-8.598 11.989,-11.387 5.187,-2.793 12.363,-4.179 21.558,-4.179 8.383,0 18.266,2.187 29.653,6.59 11.375,4.386 22.461,11.378 33.242,20.968 v 207.239 c 14.383,0 28.644,0.101 42.828,0.3 14.164,0.192 28.445,0.289 42.828,0.289 V 700.969 H 560.59 c -0.817,5.172 -1.207,10.371 -1.207,15.582 0,5.168 -0.406,10.558 -1.203,16.16 l -2.403,1.199 c -9.179,-8 -18.461,-14.469 -27.847,-19.469 -9.387,-5 -18.465,-8.98 -27.254,-11.972 -8.793,-3.008 -17.071,-5.098 -24.86,-6.289 -7.785,-1.192 -14.468,-1.801 -20.062,-1.801" /><path
         id="path18"
         style="fill:#231f20;fill-opacity:1;fill-rule:nonzero;stroke:none"
         d="m 819.52,1002.26 c 15.574,0 32.832,-1.71 51.804,-5.1 18.961,-3.39 36.246,-9.281 51.809,-17.672 -0.801,-1.59 -2.094,-4.886 -3.879,-9.879 -1.801,-5 -3.606,-10.39 -5.406,-16.168 -1.785,-5.8 -3.586,-11.293 -5.375,-16.48 -1.801,-5.199 -3.11,-8.602 -3.907,-10.18 -15.968,6 -30.746,10.078 -44.328,12.289 -13.566,2.192 -26.148,3.282 -37.726,3.282 -10.782,0 -20.66,-1.704 -29.653,-5.102 -8.976,-3.379 -13.468,-10.672 -13.468,-21.852 0,-3.988 1.687,-7.476 5.086,-10.468 3.386,-3 7.586,-5.7 12.582,-8.09 4.984,-2.399 10.574,-4.41 16.761,-6 6.196,-1.602 12.075,-3.199 17.668,-4.801 12.379,-3.59 24.961,-7.68 37.746,-12.269 12.77,-4.59 24.45,-10.68 35.039,-18.282 10.579,-7.578 19.262,-17.058 26.051,-28.437 6.797,-11.383 10.184,-25.66 10.184,-42.821 0,-28.359 -11.379,-50.14 -34.141,-65.3 -22.765,-15.168 -57.109,-22.75 -103.019,-22.75 -8.395,0 -17.676,0.39 -27.864,1.191 -10.168,0.809 -20.66,2.207 -31.437,4.199 -10.781,1.989 -21.371,4.481 -31.746,7.481 -10.387,2.988 -19.973,6.679 -28.75,11.078 l 18.57,53.312 c 24.348,-8.793 45.309,-14.269 62.887,-16.461 17.566,-2.21 31.336,-3.3 41.336,-3.3 13.972,0 25.758,2.289 35.332,6.879 9.586,4.601 14.383,13.082 14.383,25.461 0,5.98 -1.598,10.878 -4.797,14.671 -3.196,3.809 -7.481,7.09 -12.871,9.887 -5.407,2.793 -11.391,5.184 -17.973,7.184 -6.598,2 -13.09,3.976 -19.469,6 -13.582,3.976 -26.758,8.277 -39.527,12.867 -12.785,4.59 -24.074,10.09 -33.852,16.48 -9.793,6.391 -17.664,14.36 -23.664,23.95 -5.988,9.589 -8.976,21.582 -8.976,35.953 0,28.347 10.574,50.297 31.738,65.879 21.172,15.57 52.113,23.369 92.852,23.369" /><path
         id="path20"
         style="fill:#231f20;fill-opacity:1;fill-rule:nonzero;stroke:none"
         d="m 1103.8,1002.26 c 15.57,0 32.83,-1.71 51.81,-5.1 18.96,-3.39 36.24,-9.281 51.8,-17.672 -0.8,-1.59 -2.09,-4.886 -3.88,-9.879 -1.8,-5 -3.6,-10.39 -5.4,-16.168 -1.79,-5.8 -3.59,-11.293 -5.39,-16.48 -1.79,-5.199 -3.09,-8.602 -3.89,-10.18 -15.97,6 -30.75,10.078 -44.33,12.289 -13.57,2.192 -26.15,3.282 -37.73,3.282 -10.78,0 -20.67,-1.704 -29.65,-5.102 -8.98,-3.379 -13.47,-10.672 -13.47,-21.852 0,-3.988 1.69,-7.476 5.09,-10.468 3.38,-3 7.58,-5.7 12.58,-8.09 4.98,-2.399 10.56,-4.41 16.76,-6 6.19,-1.602 12.08,-3.199 17.67,-4.801 12.38,-3.59 24.96,-7.68 37.74,-12.269 12.77,-4.59 24.45,-10.68 35.05,-18.282 10.57,-7.578 19.24,-17.058 26.05,-28.437 6.78,-11.383 10.18,-25.66 10.18,-42.821 0,-28.359 -11.38,-50.14 -34.14,-65.3 -22.77,-15.168 -57.11,-22.75 -103.03,-22.75 -8.39,0 -17.67,0.39 -27.85,1.191 -10.19,0.809 -20.66,2.207 -31.44,4.199 -10.78,1.989 -21.37,4.481 -31.76,7.481 -10.375,2.988 -19.965,6.679 -28.738,11.078 l 18.566,53.312 c 24.352,-8.793 45.312,-14.269 62.892,-16.461 17.56,-2.21 31.34,-3.3 41.33,-3.3 13.98,0 25.75,2.289 35.34,6.879 9.58,4.601 14.38,13.082 14.38,25.461 0,5.98 -1.6,10.878 -4.8,14.671 -3.19,3.809 -7.48,7.09 -12.88,9.887 -5.39,2.793 -11.38,5.184 -17.96,7.184 -6.6,2 -13.09,3.976 -19.47,6 -13.58,3.976 -26.76,8.277 -39.53,12.867 -12.8,4.59 -24.07,10.09 -33.85,16.48 -9.79,6.391 -17.662,14.36 -23.662,23.95 -5.989,9.589 -8.981,21.582 -8.981,35.953 0,28.347 10.578,50.297 31.743,65.879 21.17,15.57 52.11,23.369 92.85,23.369" /><path
         id="path22"
         style="fill:#231f20;fill-opacity:1;fill-rule:nonzero;stroke:none"
         d="m 1274.92,700.969 v 294.09 h 85.66 v -294.09 z m 93.45,375.561 c 0,-12.78 -4.3,-23.58 -12.89,-32.35 -8.58,-8.79 -21.25,-13.18 -38.03,-13.18 -15.97,0 -28.14,4.39 -36.54,13.18 -8.38,8.77 -12.58,19.57 -12.58,32.35 0,13.16 4.3,24.15 12.88,32.93 8.59,8.8 20.66,13.18 36.24,13.18 16.78,0 29.45,-4.38 38.03,-13.18 8.59,-8.78 12.89,-19.77 12.89,-32.93" /><path
         id="path24"
         style="fill:#231f20;fill-opacity:1;fill-rule:nonzero;stroke:none"
         d="m 1541.1,827.941 c -27.56,-2.39 -41.33,-15.769 -41.33,-40.121 0,-12.379 3.2,-21.781 9.59,-28.16 6.38,-6.39 16.56,-9.57 30.55,-9.57 9.18,0 19.17,2.281 29.94,6.89 10.78,4.571 20.97,11.079 30.56,19.45 v 56.308 z m 140.77,-70.082 h 38.33 l 4.2,-47.91 c -9.58,-4.398 -20.77,-7.988 -33.54,-10.777 -12.79,-2.793 -25.57,-4.184 -38.34,-4.184 -12.79,0 -23.47,2.172 -32.05,6.582 -8.59,4.379 -13.69,13.961 -15.27,28.75 l -1.2,1.2 c -10.39,-9.192 -20.77,-16.18 -31.15,-20.961 -10.39,-4.809 -20.06,-8.399 -29.04,-10.797 -9,-2.391 -17.17,-3.793 -24.57,-4.184 -7.39,-0.387 -13.07,-0.59 -17.07,-0.59 -18.36,0 -33.44,2.871 -45.23,8.672 -11.78,5.781 -21.06,12.969 -27.85,21.559 -6.8,8.59 -11.47,17.871 -14.06,27.859 -2.61,9.973 -3.91,19.172 -3.91,27.551 0,15.18 2.79,28.441 8.4,39.832 5.58,11.391 13.27,20.969 23.06,28.75 9.77,7.789 21.26,13.879 34.43,18.258 13.19,4.41 27.56,6.992 43.13,7.812 11.58,0.778 24.96,1.578 40.13,2.391 15.18,0.789 28.54,1.59 40.14,2.387 v 7.191 c 0,16.762 -3.59,29.441 -10.78,38.031 -7.19,8.59 -21.78,12.887 -43.73,12.887 -14.38,0 -30.06,-1.406 -47.02,-4.199 -16.98,-2.797 -32.45,-6.391 -46.43,-10.778 -2,9.18 -4.19,18.168 -6.58,26.95 -2.39,8.769 -4.79,17.558 -7.19,26.347 17.57,7.59 37.93,13.582 61.09,17.973 23.16,4.391 45.33,6.579 66.5,6.579 17.56,0 33.54,-1.778 47.91,-5.392 14.38,-3.578 26.56,-9.378 36.54,-17.347 9.98,-8 17.66,-18.473 23.07,-31.461 5.39,-12.969 8.08,-29.039 8.08,-48.199 V 757.859" /><path
         id="path26"
         style="fill:#231f20;fill-opacity:1;fill-rule:nonzero;stroke:none"
         d="m 1956.44,700.969 v 182.082 c 0,7.578 -0.4,14.57 -1.2,20.961 -0.8,6.386 -2.71,11.988 -5.73,16.777 -3,4.781 -7.33,8.492 -12.94,11.07 -5.63,2.602 -13.06,3.911 -22.29,3.911 -10.04,0 -21.27,-2.211 -33.72,-6.59 -12.45,-4.41 -23.71,-9.59 -33.73,-15.578 V 700.969 h -85.66 v 294.09 h 80.88 l 1.18,-26.95 2.41,-1.191 c 17.21,11.582 35.34,20.371 54.36,26.352 19.03,5.992 35.55,8.99 49.57,8.99 19.63,0 35.45,-2.701 47.46,-8.088 12.02,-5.402 21.33,-12.684 27.94,-21.863 6.61,-9.2 11.11,-19.981 13.53,-32.348 2.39,-12.383 3.6,-25.359 3.6,-38.941 V 700.969 h -85.66" /><path
         id="path28"
         style="fill:#231f20;fill-opacity:1;fill-rule:nonzero;stroke:none"
         d="m 2434.41,1120.86 c 20.37,0 42.13,-2.11 65.29,-6.3 23.16,-4.19 44.93,-11.88 65.29,-23.07 l -22.76,-59.89 c -20.36,8.39 -40.24,13.87 -59.6,16.49 -19.37,2.58 -36.44,3.87 -51.21,3.87 -18.77,0 -33.55,-4.38 -44.33,-13.16 -10.78,-8.79 -16.17,-21.98 -16.17,-39.538 0,-7.992 2.3,-14.672 6.89,-20.071 4.59,-5.402 10.68,-10.082 18.27,-14.07 7.57,-4 16.26,-7.402 26.05,-10.191 9.79,-2.801 20.08,-5.391 30.86,-7.782 13.96,-3.609 29.04,-7.789 45.21,-12.589 16.19,-4.77 31.15,-11.778 44.94,-20.957 13.77,-9.192 25.14,-21.372 34.14,-36.543 8.97,-15.18 13.46,-34.938 13.46,-59.297 0,-39.141 -14.36,-69.383 -43.11,-90.742 -28.75,-21.372 -72.09,-32.032 -129.99,-32.032 -10.38,0 -21.86,0.59 -34.44,1.782 -12.58,1.21 -25.45,3.101 -38.63,5.699 -13.18,2.582 -26.36,5.98 -39.53,10.172 -13.18,4.199 -25.76,9.277 -37.75,15.269 l 22.77,62.309 c 29.14,-11.598 55.31,-18.981 78.47,-22.16 23.15,-3.207 41.72,-4.809 55.71,-4.809 24.35,0 42.71,4.102 55.11,12.289 12.36,8.18 18.56,22.25 18.56,42.223 0,8.789 -1.6,16.066 -4.79,21.867 -3.2,5.781 -7.79,10.793 -13.77,14.973 -6.01,4.187 -13.18,7.687 -21.56,10.476 -8.4,2.793 -17.6,5.59 -27.56,8.383 -20.37,5.199 -39.74,10.5 -58.11,15.879 -18.37,5.39 -34.54,12.48 -48.51,21.269 -13.99,8.77 -25.07,19.86 -33.24,33.243 -8.2,13.378 -12.28,30.648 -12.28,51.796 0,37.552 13.06,67.792 39.23,90.762 26.15,22.95 65.18,34.45 117.09,34.45" /><path
         id="path30"
         style="fill:#231f20;fill-opacity:1;fill-rule:nonzero;stroke:none"
         d="m 2720.12,848.309 c 0,-27.161 5.09,-48.418 15.28,-63.789 10.18,-15.372 28.65,-23.071 55.41,-23.071 13.96,0 27.34,1.41 40.12,4.211 12.79,2.789 25.76,6.379 38.94,10.77 l 16.17,-56.891 c -14.78,-7.598 -31.85,-13.398 -51.21,-17.379 -19.38,-3.98 -39.24,-5.98 -59.6,-5.98 -28.35,0 -51.61,3.879 -69.79,11.679 -18.17,7.77 -32.64,18.461 -43.42,32.032 -10.78,13.578 -18.26,29.359 -22.46,47.328 -4.19,17.972 -6.29,37.14 -6.29,57.5 0,17.16 2,35.031 5.98,53.601 4,18.578 11.39,35.551 22.17,50.918 10.78,15.371 25.56,27.953 44.33,37.742 18.75,9.782 43.12,14.67 73.07,14.67 12.77,0 27.05,-0.9 42.83,-2.701 15.78,-1.789 32.05,-5.679 48.81,-11.66 -2,-10 -4.09,-19.879 -6.28,-29.66 -2.2,-9.789 -4.49,-19.879 -6.89,-30.258 -12.79,3.609 -24.47,5.899 -35.04,6.891 -10.58,1 -20.27,1.508 -29.05,1.508 -23.95,0 -42.14,-7.7 -54.5,-23.071 -12.38,-15.371 -18.58,-36.828 -18.58,-64.39" /><path
         id="path32"
         style="fill:#231f20;fill-opacity:1;fill-rule:nonzero;stroke:none"
         d="m 2931.02,700.969 v 294.09 h 85.65 v -294.09 z m 93.44,375.561 c 0,-12.78 -4.3,-23.58 -12.88,-32.35 -8.59,-8.79 -21.26,-13.18 -38.04,-13.18 -15.97,0 -28.14,4.39 -36.54,13.18 -8.38,8.77 -12.58,19.57 -12.58,32.35 0,13.16 4.3,24.15 12.89,32.93 8.58,8.8 20.66,13.18 36.23,13.18 16.78,0 29.45,-4.38 38.04,-13.18 8.58,-8.78 12.88,-19.77 12.88,-32.93" /><path
         id="path34"
         style="fill:#231f20;fill-opacity:1;fill-rule:nonzero;stroke:none"
         d="m 3219.26,948.352 c -10.83,0 -19.87,-1.813 -27.09,-5.403 -7.24,-3.59 -13.15,-8.488 -17.77,-14.679 -4.62,-6.2 -8.13,-13.379 -10.55,-21.551 -2.41,-8.199 -4,-16.68 -4.8,-25.457 h 113.81 c -0.42,19.558 -4.33,35.636 -11.75,48.218 -7.44,12.579 -21.39,18.872 -41.85,18.872 z m -3.32,54.508 c 31.55,0 56.31,-5.008 74.28,-14.981 17.97,-9.981 31.45,-22.367 40.43,-37.129 8.99,-14.789 14.57,-30.469 16.78,-47.031 2.18,-16.571 3.28,-31.449 3.28,-44.629 v -30.551 h -192.87 c 0,-22.949 5.7,-40.269 17.07,-51.949 11.39,-11.68 30.25,-17.52 56.6,-17.52 15.98,0 31.95,1.68 47.93,5.078 15.96,3.391 31.54,7.891 46.72,13.481 l 17.36,-52.399 c -19.57,-10.66 -40.12,-18.171 -61.68,-22.531 -21.58,-4.34 -42.53,-6.519 -62.89,-6.519 -29.57,0 -53.88,4.09 -72.95,12.269 -19.08,8.18 -34.07,19.25 -44.96,33.242 -10.91,13.977 -18.44,30.047 -22.61,48.219 -4.17,18.168 -6.23,37.442 -6.23,57.809 0,15.961 1.99,33.133 5.98,51.511 3.98,18.372 11.38,35.129 22.16,50.309 10.78,15.172 25.47,27.852 44.03,38.039 18.57,10.184 42.42,15.282 71.57,15.282" /><path
         id="path36"
         style="fill:#231f20;fill-opacity:1;fill-rule:nonzero;stroke:none"
         d="m 3595.58,700.969 v 182.082 c 0,7.578 -0.41,14.57 -1.21,20.961 -0.81,6.386 -2.71,11.988 -5.72,16.777 -3.01,4.781 -7.34,8.492 -12.96,11.07 -5.62,2.602 -13.05,3.911 -22.28,3.911 -10.03,0 -21.27,-2.211 -33.71,-6.59 -12.45,-4.41 -23.71,-9.59 -33.73,-15.578 V 700.969 h -85.66 v 294.09 h 80.88 l 1.17,-26.95 2.42,-1.191 c 17.21,11.582 35.34,20.371 54.36,26.352 19.03,5.992 35.55,8.99 49.57,8.99 19.63,0 35.45,-2.701 47.46,-8.088 12.01,-5.402 21.33,-12.684 27.94,-21.863 6.61,-9.2 11.11,-19.981 13.52,-32.348 2.39,-12.383 3.61,-25.359 3.61,-38.941 V 700.969 h -85.66" /><path
         id="path38"
         style="fill:#231f20;fill-opacity:1;fill-rule:nonzero;stroke:none"
         d="m 3816.48,848.309 c 0,-27.161 5.08,-48.418 15.27,-63.789 10.18,-15.372 28.65,-23.071 55.41,-23.071 13.97,0 27.35,1.41 40.12,4.211 12.79,2.789 25.76,6.379 38.95,10.77 l 16.16,-56.891 c -14.76,-7.598 -31.85,-13.398 -51.2,-17.379 -19.38,-3.98 -39.24,-5.98 -59.61,-5.98 -28.36,0 -51.62,3.879 -69.78,11.679 -18.17,7.77 -32.64,18.461 -43.42,32.032 -10.78,13.578 -18.28,29.359 -22.47,47.328 -4.19,17.972 -6.28,37.14 -6.28,57.5 0,17.16 1.99,35.031 5.98,53.601 3.99,18.578 11.38,35.551 22.16,50.918 10.79,15.371 25.55,27.953 44.34,37.742 18.76,9.782 43.12,14.67 73.07,14.67 12.77,0 27.04,-0.9 42.82,-2.701 15.78,-1.789 32.04,-5.679 48.83,-11.66 -2.01,-10 -4.12,-19.879 -6.29,-29.66 -2.21,-9.789 -4.51,-19.879 -6.9,-30.258 -12.79,3.609 -24.47,5.899 -35.05,6.891 -10.57,1 -20.26,1.508 -29.04,1.508 -23.95,0 -42.13,-7.7 -54.51,-23.071 -12.37,-15.371 -18.56,-36.828 -18.56,-64.39" /><path
         id="path40"
         style="fill:#231f20;fill-opacity:1;fill-rule:nonzero;stroke:none"
         d="m 4151.91,948.352 c -10.84,0 -19.87,-1.813 -27.09,-5.403 -7.22,-3.59 -13.15,-8.488 -17.77,-14.679 -4.62,-6.2 -8.14,-13.379 -10.53,-21.551 -2.42,-8.199 -4.01,-16.68 -4.83,-25.457 h 113.82 c -0.41,19.558 -4.32,35.636 -11.76,48.218 -7.42,12.579 -21.37,18.872 -41.84,18.872 z m -3.31,54.508 c 31.54,0 56.31,-5.008 74.28,-14.981 17.96,-9.981 31.44,-22.367 40.42,-37.129 8.99,-14.789 14.57,-30.469 16.78,-47.031 2.19,-16.571 3.28,-31.449 3.28,-44.629 V 828.539 H 4090.5 c 0,-22.949 5.68,-40.269 17.07,-51.949 11.38,-11.68 30.25,-17.52 56.6,-17.52 15.97,0 31.94,1.68 47.92,5.078 15.96,3.391 31.53,7.891 46.72,13.481 l 17.37,-52.399 c -19.57,-10.66 -40.14,-18.171 -61.7,-22.531 -21.56,-4.34 -42.52,-6.519 -62.89,-6.519 -29.55,0 -53.87,4.09 -72.93,12.269 -19.07,8.18 -34.07,19.25 -44.98,33.242 -10.89,13.977 -18.43,30.047 -22.6,48.219 -4.16,18.168 -6.24,37.442 -6.24,57.809 0,15.961 1.99,33.133 5.99,51.511 3.98,18.372 11.39,35.129 22.17,50.309 10.78,15.172 25.45,27.852 44.02,38.039 18.57,10.184 42.42,15.282 71.58,15.282" /><path
         id="path42"
         style="fill:#231f20;fill-opacity:1;fill-rule:nonzero;stroke:none"
         d="M 644.086,6.60156 V 418.699 h 280.926 v -62.91 H 732.734 V 244.391 H 883.086 V 184.488 H 732.734 V 6.60156 h -88.648" /><path
         id="path44"
         style="fill:#231f20;fill-opacity:1;fill-rule:nonzero;stroke:none"
         d="m 1152.2,153.34 c 0,11.582 -0.81,22.961 -2.4,34.14 -1.59,11.18 -4.49,21.168 -8.68,29.961 -4.2,8.77 -10.1,15.86 -17.69,21.258 -7.58,5.403 -17.56,8.09 -29.94,8.09 -12.37,0 -22.56,-2.687 -30.55,-8.09 -7.99,-5.398 -14.37,-12.488 -19.16,-21.258 -4.8,-8.793 -8.08,-18.781 -9.88,-29.961 -1.8,-11.179 -2.7,-22.558 -2.7,-34.14 0,-13.18 0.8,-25.352 2.39,-36.531 1.59,-11.188 4.7,-20.8793 9.29,-29.059 4.59,-8.1797 10.88,-14.6719 18.87,-19.4687 7.98,-4.793 18.56,-7.1797 31.74,-7.1797 11.99,0 21.87,2.4687 29.65,7.4882 7.79,4.9883 13.78,11.7696 17.98,20.3594 4.19,8.5899 7.09,18.4728 8.68,29.6598 1.59,11.172 2.4,22.75 2.4,34.731 z m 88.65,0.601 c 0,-20.371 -2.6,-39.839 -7.8,-58.4019 -5.19,-18.5703 -13.78,-34.961 -25.75,-49.1094 -11.98,-14.1914 -27.56,-25.3789 -46.72,-33.5391 -19.17,-8.17966 -42.73,-12.281225 -70.68,-12.281225 -27.16,0 -50.12,3.980465 -68.89,11.968725 -18.77,7.9805 -33.936,18.8711 -45.514,32.6524 C 963.902,59 955.625,75.1719 950.641,93.7383 945.645,112.301 943.16,132.18 943.16,153.34 c 0,20.762 2.785,40.43 8.379,59 5.578,18.57 14.367,34.84 26.356,48.808 11.968,13.981 27.445,25.172 46.415,33.551 18.96,8.379 42.03,12.582 69.18,12.582 27.56,0 50.7,-4.101 69.49,-12.281 18.77,-8.191 33.94,-19.379 45.51,-33.539 11.58,-14.18 19.86,-30.551 24.88,-49.121 4.98,-18.57 7.48,-38.031 7.48,-58.399" /><path
         id="path46"
         style="fill:#231f20;fill-opacity:1;fill-rule:nonzero;stroke:none"
         d="m 1377.83,0 c -19.57,0 -35.24,2.60156 -47.02,7.78906 -11.79,5.17974 -20.87,12.37114 -27.26,21.56254 -6.39,9.1797 -10.57,19.7695 -12.57,31.75 -2,11.9765 -3,24.9492 -3,38.9184 v 200.671 h 85.65 V 118.609 c 0,-7.199 0.4,-13.988 1.21,-20.3707 0.8,-6.3867 2.59,-11.9883 5.39,-16.7774 2.79,-4.7812 6.78,-8.5898 11.98,-11.3828 5.18,-2.789 12.37,-4.1875 21.56,-4.1875 8.39,0 18.27,2.1875 29.64,6.5899 11.39,4.3906 22.48,11.3789 33.26,20.9609 V 300.691 c 14.38,0 28.64,0.098 42.82,0.297 14.17,0.203 28.45,0.313 42.83,0.313 V 6.60156 h -79.67 c -0.8,5.16794 -1.2,10.36724 -1.2,15.56644 0,5.1914 -0.4,10.5625 -1.2,16.1718 l -2.39,1.1915 c -9.18,-7.9922 -18.47,-14.4727 -27.85,-19.4727 -9.39,-5 -18.47,-8.9688 -27.26,-11.96876 -8.79,-3 -17.07,-5.10156 -24.85,-6.28906 C 1390.11,0.609375 1383.42,0 1377.83,0" /><path
         id="path48"
         style="fill:#231f20;fill-opacity:1;fill-rule:nonzero;stroke:none"
         d="M 1816.23,6.60156 V 188.691 c 0,7.571 -0.41,14.559 -1.21,20.95 -0.8,6.39 -2.7,11.98 -5.72,16.781 -3.01,4.789 -7.34,8.476 -12.95,11.078 -5.62,2.59 -13.06,3.898 -22.28,3.898 -10.04,0 -21.27,-2.207 -33.72,-6.578 -12.45,-4.422 -23.71,-9.59 -33.74,-15.59 V 6.60156 h -85.65 V 300.691 h 80.87 l 1.18,-26.953 2.41,-1.187 c 17.22,11.57 35.35,20.359 54.36,26.347 19.04,5.981 35.56,8.993 49.58,8.993 19.62,0 35.44,-2.7 47.46,-8.09 12.01,-5.41 21.32,-12.68 27.93,-21.871 6.61,-9.192 11.12,-19.969 13.53,-32.352 2.4,-12.379 3.6,-25.348 3.6,-38.93 V 6.60156 h -85.65" /><path
         id="path50"
         style="fill:#231f20;fill-opacity:1;fill-rule:nonzero;stroke:none"
         d="m 2156.02,228.871 c -6.82,4.379 -16.05,8.149 -27.69,11.328 -11.64,3.192 -22.27,4.789 -31.9,4.789 -7.23,0 -14.46,-1.297 -21.68,-3.879 -7.24,-2.589 -13.64,-7.468 -19.26,-14.648 -5.63,-7.152 -10.16,-17.109 -13.56,-29.82 -3.41,-12.743 -5.11,-29.082 -5.11,-48.961 0,-17.52 1.49,-31.762 4.51,-42.7 3.03,-10.9487 7.12,-19.6089 12.36,-25.9605 5.21,-6.3789 11.43,-10.7695 18.65,-13.1484 7.22,-2.3828 14.84,-3.5703 22.88,-3.5703 4.42,0 9.43,0.6797 15.03,2.0898 5.63,1.3789 11.25,3.0782 16.87,5.0703 5.61,1.9805 10.94,4.3672 15.96,7.1602 5.01,2.7891 9.34,5.3789 12.94,7.7578 z m -77.87,79.02 c 9.59,0 21.86,-1.321 36.84,-3.942 14.98,-2.629 28.65,-7.57 41.03,-14.808 v 145.718 h 85.65 V 6.60156 h -79.65 l -1.8,26.32814 c -0.82,0.8203 -1.41,1.2187 -1.8,1.2187 -14.37,-11.5898 -29.86,-19.7773 -46.42,-24.55856 -16.58,-4.80078 -31.25,-7.1914 -44.03,-7.1914 -22.76,0 -41.73,3.89062 -56.91,11.67966 -15.17,7.793 -27.15,18.2617 -35.93,31.4414 -8.79,13.1914 -14.98,28.5586 -18.56,46.1407 -3.61,17.5508 -5.39,36.1288 -5.39,55.6988 0,22.75 2.17,43.911 6.58,63.481 4.38,19.558 11.68,36.539 21.86,50.93 10.19,14.359 23.26,25.64 39.24,33.832 15.95,8.179 35.72,12.289 59.29,12.289" /><path
         id="path52"
         style="fill:#231f20;fill-opacity:1;fill-rule:nonzero;stroke:none"
         d="m 2415.25,133.57 c -27.54,-2.379 -41.33,-15.781 -41.33,-40.1286 0,-12.3711 3.2,-21.7695 9.59,-28.1523 6.38,-6.3907 16.56,-9.5703 30.55,-9.5703 9.19,0 19.16,2.2929 29.96,6.8828 10.78,4.5898 20.95,11.0898 30.54,19.4492 v 56.3082 z m 140.77,-70.0817 h 38.33 l 4.2,-47.918 c -9.59,-4.3984 -20.77,-7.99217 -33.54,-10.78124 -12.79,-2.77734 -25.57,-4.179685 -38.34,-4.179685 -12.78,0 -23.46,2.179685 -32.05,6.582035 -8.59,4.38669 -13.69,13.95699 -15.27,28.74999 l -1.2,1.207 c -10.39,-9.1992 -20.77,-16.1796 -31.14,-20.9687 -10.4,-4.8008 -20.07,-8.39064 -29.05,-10.78907 -9,-2.40235 -17.17,-3.78907 -24.57,-4.17969 -7.38,-0.402346 -13.08,-0.601565 -17.07,-0.601565 -18.36,0 -33.44,2.890625 -45.23,8.671875 -11.76,5.77735 -21.06,12.98045 -27.84,21.57815 -6.79,8.5703 -11.48,17.8711 -14.07,27.8515 -2.61,9.961 -3.91,19.1602 -3.91,27.5391 0,15.191 2.79,28.449 8.4,39.84 5.58,11.39 13.26,20.961 23.06,28.75 9.77,7.789 21.26,13.871 34.44,18.262 13.18,4.398 27.55,6.988 43.12,7.796 11.58,0.793 24.96,1.59 40.13,2.403 15.18,0.777 28.54,1.578 40.14,2.398 v 7.172 c 0,16.77 -3.59,29.449 -10.78,38.039 -7.19,8.578 -21.78,12.879 -43.73,12.879 -14.38,0 -30.06,-1.41 -47.01,-4.199 -16.99,-2.801 -32.46,-6.391 -46.44,-10.781 -2,9.191 -4.18,18.179 -6.58,26.972 -2.39,8.77 -4.79,17.547 -7.19,26.34 17.57,7.578 37.93,13.578 61.09,17.969 23.16,4.398 45.33,6.582 66.5,6.582 17.56,0 33.54,-1.793 47.91,-5.371 14.38,-3.61 26.56,-9.41 36.54,-17.379 9.98,-7.992 17.66,-18.461 23.07,-31.453 5.39,-12.981 8.08,-29.039 8.08,-48.207 V 63.4883" /><path
         id="path54"
         style="fill:#231f20;fill-opacity:1;fill-rule:nonzero;stroke:none"
         d="m 2728.83,382.16 v -80.859 h 85.64 v -56.313 h -85.64 V 112.012 c 0,-15.5706 2.78,-27.0628 8.38,-34.4534 5.58,-7.3672 15.96,-11.0781 31.15,-11.0781 5.59,0 12.77,0.7109 21.55,2.1093 8.78,1.3907 18.57,3.2891 29.35,5.6915 l 10.79,-55.7032 c -12.8,-5.6093 -26.76,-9.79685 -41.94,-12.58982 -15.18,-2.78906 -29.14,-4.1875 -41.92,-4.1875 -20.37,0 -37.14,2.39844 -50.31,7.17969 -13.18,4.78903 -23.57,11.17973 -31.15,19.17973 -7.59,7.9687 -12.89,17.2617 -15.88,27.8515 -2.99,10.5664 -4.49,21.6602 -4.49,33.25 V 244.988 h -41.33 v 46.723 l 46.72,13.769 c 1.21,2.411 2.79,6.989 4.79,13.77 1.99,6.801 4,13.98 5.99,21.578 1.99,7.582 3.99,14.762 6,21.57 1.99,6.774 3.38,11.364 4.18,13.762 l 58.12,6" /><path
         id="path56"
         style="fill:#231f20;fill-opacity:1;fill-rule:nonzero;stroke:none"
         d="M 2871.39,6.60156 V 300.691 h 85.64 V 6.60156 Z M 2964.82,382.16 c 0,-12.789 -4.29,-23.582 -12.88,-32.359 -8.58,-8.77 -21.25,-13.172 -38.03,-13.172 -15.98,0 -28.15,4.402 -36.54,13.172 -8.38,8.777 -12.58,19.57 -12.58,32.359 0,13.168 4.29,24.141 12.89,32.93 8.57,8.789 20.65,13.18 36.23,13.18 16.78,0 29.45,-4.391 38.03,-13.18 8.59,-8.789 12.88,-19.762 12.88,-32.93" /><path
         id="path58"
         style="fill:#231f20;fill-opacity:1;fill-rule:nonzero;stroke:none"
         d="m 3221.61,153.34 c 0,11.582 -0.81,22.961 -2.41,34.14 -1.6,11.18 -4.49,21.168 -8.69,29.961 -4.18,8.77 -10.08,15.86 -17.66,21.258 -7.59,5.403 -17.58,8.09 -29.95,8.09 -12.38,0 -22.56,-2.687 -30.55,-8.09 -7.99,-5.398 -14.37,-12.488 -19.16,-21.258 -4.8,-8.793 -8.09,-18.781 -9.88,-29.961 -1.8,-11.179 -2.7,-22.558 -2.7,-34.14 0,-13.18 0.8,-25.352 2.4,-36.531 1.58,-11.188 4.69,-20.8793 9.28,-29.059 4.59,-8.1797 10.87,-14.6719 18.87,-19.4687 7.98,-4.793 18.57,-7.1797 31.74,-7.1797 11.97,0 21.87,2.4687 29.65,7.4882 7.79,4.9883 13.78,11.7696 17.96,20.3594 4.2,8.5899 7.09,18.4728 8.69,29.6598 1.6,11.172 2.41,22.75 2.41,34.731 z m 88.64,0.601 c 0,-20.371 -2.6,-39.839 -7.79,-58.4019 -5.19,-18.5703 -13.77,-34.961 -25.75,-49.1094 -11.98,-14.1914 -27.55,-25.3789 -46.72,-33.5391 -19.17,-8.17966 -42.74,-12.281225 -70.68,-12.281225 -27.16,0 -50.12,3.980465 -68.89,11.968725 -18.77,7.9805 -33.95,18.8711 -45.53,32.6524 -11.57,13.7695 -19.86,29.9414 -24.85,48.5078 -4.99,18.5627 -7.49,38.4417 -7.49,59.6017 0,20.762 2.79,40.43 8.4,59 5.58,18.57 14.37,34.84 26.34,48.808 11.99,13.981 27.46,25.172 46.43,33.551 18.96,8.379 42.01,12.582 69.18,12.582 27.55,0 50.7,-4.101 69.49,-12.281 18.76,-8.191 33.92,-19.379 45.52,-33.539 11.57,-14.18 19.85,-30.551 24.85,-49.121 4.99,-18.57 7.49,-38.031 7.49,-58.399" /><path
         id="path60"
         style="fill:#231f20;fill-opacity:1;fill-rule:nonzero;stroke:none"
         d="M 3553.62,6.60156 V 188.691 c 0,7.571 -0.41,14.559 -1.21,20.95 -0.81,6.39 -2.72,11.98 -5.72,16.781 -3.01,4.789 -7.34,8.476 -12.95,11.078 -5.62,2.59 -13.06,3.898 -22.3,3.898 -10.02,0 -21.25,-2.207 -33.7,-6.578 -12.45,-4.422 -23.71,-9.59 -33.74,-15.59 V 6.60156 h -85.65 V 300.691 h 80.87 l 1.18,-26.953 2.41,-1.187 c 17.22,11.57 35.35,20.359 54.37,26.347 19.03,5.981 35.54,8.993 49.56,8.993 19.63,0 35.45,-2.7 47.47,-8.09 12.01,-5.41 21.32,-12.68 27.93,-21.871 6.62,-9.192 11.12,-19.969 13.53,-32.352 2.38,-12.379 3.6,-25.348 3.6,-38.93 V 6.60156 h -85.65" /><path
         id="path62"
         style="fill:#231f20;fill-opacity:1;fill-rule:nonzero;stroke:none"
         d="m 2481.21,2562.2 c -61.18,12.15 -125.86,20.14 -191.08,27.25 -3.63,0.41 -7.25,0.82 -10.88,1.21 -133.56,14.83 -243.8,38.16 -235.32,150.52 12.73,175.97 411.28,192.93 411.28,-4.25 26.29,0 51.22,0 75.43,0 94.98,0 178.57,0 284.98,0 2.91,219.36 -130.58,363.54 -306.8,432.58 -338.12,132.5 -833.66,-11.68 -825.29,-432.58 3.33,-253.41 135.19,-375.66 348.06,-427.68 57.84,-14.14 121.59,-23.14 190.44,-28.12 28.34,-1.61 55.77,-3.79 81.6,-6.97 109.29,-13.39 189.76,-44.68 189.76,-128.7 0,-144.36 -319.92,-167.24 -428.55,-62.87 -22.17,21.33 -35.75,47.83 -35.75,79.82 -21.27,0 -41.91,0 -62.32,0 -12.34,0 -24.64,0 -36.77,0 -89.61,0 -174.07,0 -267.68,0 -0.97,-73.97 13.82,-139.35 40.59,-196.36 47.61,-101.5 133.44,-176.26 237.79,-224.67 10.8,-5 21.85,-9.68 33.03,-14.12 355.55,-141.48 888.54,2.1 888.54,416.07 0,284.28 -169.34,376.8 -381.06,418.87" /><path
         id="path64"
         style="fill:#231f20;fill-opacity:1;fill-rule:nonzero;stroke:none"
         d="m 3562.8,2853.54 h 438.84 c 0,127.2 0,214.12 0,339.22 -165.82,0 -336.02,0 -505.83,0 -140.71,0 -281.15,0 -418.52,0 v -526.17 -957.87 c 129.32,0 258.64,0 385.85,0 v 481.24 h 69.48 407.52 c 0,80.81 0,142.41 0,207.42 0,40.73 0,82.78 0,131.79 h -164.41 -312.59 v 324.37 h 99.66" /><path
         id="path66"
         style="fill:#231f20;fill-opacity:1;fill-rule:nonzero;stroke:none"
         d="m 1246.81,2234.48 c 143.79,97.48 216.81,260.65 219.52,424.98 3.58,217.75 -116.43,437.53 -359.66,509.13 -52.21,15.38 -110.072,23.93 -173.623,24.17 -78.07,0 -156.695,0 -235.348,0 -139.273,0 -278.687,0 -415.511,0 0,-100.07 0,-200.01 0,-299.92 21.136,-9.43 40.636,-21.82 58.128,-36.52 1.75,-1.48 3.59,-2.84 5.297,-4.36 0.879,-0.89 1.719,-1.84 2.614,-2.74 3.367,-3.36 6.855,-6.61 10.433,-9.78 19.965,-17.78 42.82,-32.39 67.801,-42.96 29.477,-12.46 61.848,-19.36 95.852,-19.36 33.976,0 66.375,6.9 95.808,19.36 14.016,5.93 27.16,13.4 39.692,21.74 1.257,0.85 2.613,1.55 3.871,2.42 8.421,5.82 16.593,12 24.238,18.8 3.574,3.17 7.066,6.42 10.449,9.78 0.895,0.9 1.746,1.85 2.629,2.74 0.684,0.61 1.438,1.16 2.137,1.76 19.461,16.94 41.515,30.99 65.644,41.19 29.465,12.46 61.832,19.36 95.824,19.36 34.004,0 66.387,-6.9 95.829,-19.36 29.445,-12.45 55.966,-30.47 78.256,-52.74 22.27,-22.26 40.31,-48.77 52.76,-78.21 3.74,-8.89 6.8,-18.11 9.51,-27.48 6.27,-21.74 9.82,-44.64 9.82,-68.39 0,-34 -6.89,-66.37 -19.33,-95.86 -12.45,-29.46 -30.49,-55.97 -52.76,-78.21 -22.29,-22.28 -48.811,-40.31 -78.256,-52.77 -29.442,-12.46 -61.825,-19.34 -95.829,-19.34 -29.671,0 -57.96,5.51 -84.296,15.13 -3.856,1.41 -7.782,2.64 -11.528,4.21 -24.152,10.2 -46.226,24.3 -65.687,41.27 -1.356,1.19 -2.793,2.25 -4.121,3.45 -0.211,0.2 -0.391,0.41 -0.602,0.62 -2.75,2.75 -5.574,5.45 -8.465,8.06 -8.215,7.49 -17.074,14.25 -26.222,20.56 -13.637,9.39 -28.121,17.61 -43.563,24.13 -15.004,6.36 -30.816,11.22 -47.191,14.5 -15.731,3.16 -31.981,4.85 -48.617,4.85 -34.004,0 -66.375,-6.89 -95.852,-19.35 -25.805,-10.91 -49.344,-26.09 -69.785,-44.69 -2.879,-2.61 -5.699,-5.31 -8.449,-8.06 -0.211,-0.21 -0.395,-0.42 -0.602,-0.62 -19.25,-17.52 -41.367,-31.89 -65.437,-42.65 0,-94.69 0,-189.24 0,-283.88 0,-150.24 0,-300.54 0,-450.72 122.953,0 252.281,0 379.496,0 v 436.74 H 858.82 l 254.42,-436.74 h 424.02 35.65 l -168.69,271.98 -157.41,253.78" /></g></g></svg>