<?xml version="1.0" encoding="UTF-8" standalone="no"?>
<svg
   xmlns:dc="http://purl.org/dc/elements/1.1/"
   xmlns:cc="http://creativecommons.org/ns#"
   xmlns:rdf="http://www.w3.org/1999/02/22-rdf-syntax-ns#"
   xmlns:svg="http://www.w3.org/2000/svg"
   xmlns="http://www.w3.org/2000/svg"
   viewBox="0 0 571.12 428.94666"
   height="428.94666"
   width="571.12"
   xml:space="preserve"
   id="svg2"
   version="1.1"><metadata
     id="metadata8"><rdf:RDF><cc:Work
         rdf:about=""><dc:format>image/svg+xml</dc:format><dc:type
           rdf:resource="http://purl.org/dc/dcmitype/StillImage" /></cc:Work></rdf:RDF></metadata><defs
     id="defs6"><clipPath
       id="clipPath68"
       clipPathUnits="userSpaceOnUse"><path
         id="path66"
         d="m 2530.42,2736.94 c 94.96,0 178.54,0 284.98,0 2.9,219.35 -130.59,363.52 -306.81,432.57 24.13,-83.55 37.27,-171.67 37.27,-262.9 0,-57.96 -5.47,-114.6 -15.44,-169.67 z" /></clipPath><linearGradient
       id="linearGradient76"
       spreadMethod="pad"
       gradientTransform="matrix(306.849,0,0,-306.849,2508.59,2953.22)"
       gradientUnits="userSpaceOnUse"
       y2="0"
       x2="1"
       y1="0"
       x1="0"><stop
         id="stop70"
         offset="0"
         style="stop-opacity:1;stop-color:#225597" /><stop
         id="stop72"
         offset="0.994382"
         style="stop-opacity:1;stop-color:#127dcb" /><stop
         id="stop74"
         offset="1"
         style="stop-opacity:1;stop-color:#127dcb" /></linearGradient><clipPath
       id="clipPath86"
       clipPathUnits="userSpaceOnUse"><path
         id="path84"
         d="m 2480.99,2562.19 c -3.13,-8.03 -6.12,-16.13 -9.48,-24.05 -41.18,-97.48 -98.39,-186.53 -168.11,-263.96 109.28,-13.4 189.75,-44.72 189.75,-128.72 0,-144.36 -319.91,-167.25 -428.53,-62.88 -31.22,-17.66 -63.39,-33.8 -96.69,-47.9 -0.6,-0.26 -1.27,-0.48 -1.87,-0.72 -10.78,-4.54 -21.74,-8.77 -32.75,-12.91 -73,-27.53 -150.31,-46.32 -230.64,-55.02 47.61,-101.49 133.46,-176.25 237.8,-224.64 10.81,-5.02 21.85,-9.69 33.04,-14.13 355.56,-141.49 888.52,2.1 888.52,416.07 0,284.28 -169.34,376.81 -381.04,418.86 z" /></clipPath><linearGradient
       id="linearGradient92"
       spreadMethod="pad"
       gradientTransform="matrix(1159.36,0,0,-1159.36,1702.67,2118.28)"
       gradientUnits="userSpaceOnUse"
       y2="0"
       x2="1"
       y1="0"
       x1="0"><stop
         id="stop88"
         offset="0"
         style="stop-opacity:1;stop-color:#ec0969" /><stop
         id="stop90"
         offset="1"
         style="stop-opacity:1;stop-color:#a5128e" /></linearGradient><clipPath
       id="clipPath102"
       clipPathUnits="userSpaceOnUse"><path
         id="path100"
         d="M 3775.51,2529.17 H 3462.9 v 324.38 h 99.68 c -41.69,105.32 -65.29,219.58 -66.99,339.2 -140.71,0 -281.16,0 -418.53,0 v -526.16 c 99.22,-41.97 188.58,-102.7 263.62,-177.73 75.07,-74.94 135.88,-164.3 177.77,-263.55 4.91,-11.64 9.54,-23.44 13.94,-35.35 h 407.52 c 0,80.81 0,142.41 0,207.41 -59.26,37.77 -114.26,81.63 -163.71,131.08 -0.23,0.23 -0.46,0.49 -0.69,0.72 z" /></clipPath><linearGradient
       id="linearGradient108"
       spreadMethod="pad"
       gradientTransform="matrix(862.851,0,0,-862.851,3077.06,2691.36)"
       gradientUnits="userSpaceOnUse"
       y2="0"
       x2="1"
       y1="0"
       x1="0"><stop
         id="stop104"
         offset="0"
         style="stop-opacity:1;stop-color:#ec0969" /><stop
         id="stop106"
         offset="1"
         style="stop-opacity:1;stop-color:#a5128e" /></linearGradient><clipPath
       id="clipPath118"
       clipPathUnits="userSpaceOnUse"><path
         id="path116"
         d="m 3495.59,3192.75 c 1.7,-119.62 25.3,-233.88 66.99,-339.2 h 438.83 c 0,127.2 0,214.13 0,339.2 -165.81,0 -336.02,0 -505.82,0 z" /></clipPath><linearGradient
       id="linearGradient126"
       spreadMethod="pad"
       gradientTransform="matrix(1153.72,1981.39,1981.39,-1153.72,2937.83,1630.92)"
       gradientUnits="userSpaceOnUse"
       y2="0"
       x2="1"
       y1="0"
       x1="0"><stop
         id="stop120"
         offset="0"
         style="stop-opacity:1;stop-color:#225597" /><stop
         id="stop122"
         offset="0.994382"
         style="stop-opacity:1;stop-color:#127dcb" /><stop
         id="stop124"
         offset="1"
         style="stop-opacity:1;stop-color:#127dcb" /></linearGradient><clipPath
       id="clipPath136"
       clipPathUnits="userSpaceOnUse"><path
         id="path134"
         d="m 3776.2,2528.45 c 49.45,-49.45 104.45,-93.31 163.71,-131.08 0,40.74 0,82.79 0,131.8 h -164.4 c 0.23,-0.23 0.46,-0.49 0.69,-0.72 z" /></clipPath><linearGradient
       id="linearGradient144"
       spreadMethod="pad"
       gradientTransform="matrix(1153.68,1981.32,1981.32,-1153.68,3262.86,1441.68)"
       gradientUnits="userSpaceOnUse"
       y2="0"
       x2="1"
       y1="0"
       x1="0"><stop
         id="stop138"
         offset="0"
         style="stop-opacity:1;stop-color:#225597" /><stop
         id="stop140"
         offset="0.994382"
         style="stop-opacity:1;stop-color:#127dcb" /><stop
         id="stop142"
         offset="1"
         style="stop-opacity:1;stop-color:#127dcb" /></linearGradient><clipPath
       id="clipPath154"
       clipPathUnits="userSpaceOnUse"><path
         id="path152"
         d="m 3340.68,2488.86 c -75.04,75.03 -164.4,135.76 -263.62,177.73 v -957.86 c 129.32,0 258.64,0 385.84,0 v 481.23 h 69.49 c -4.4,11.91 -9.03,23.71 -13.94,35.35 -41.89,99.25 -102.7,188.61 -177.77,263.55 z" /></clipPath><linearGradient
       id="linearGradient162"
       spreadMethod="pad"
       gradientTransform="matrix(1153.74,1981.43,1981.43,-1153.74,2943.76,1627.41)"
       gradientUnits="userSpaceOnUse"
       y2="0"
       x2="1"
       y1="0"
       x1="0"><stop
         id="stop156"
         offset="0"
         style="stop-opacity:1;stop-color:#225597" /><stop
         id="stop158"
         offset="0.994382"
         style="stop-opacity:1;stop-color:#127dcb" /><stop
         id="stop160"
         offset="1"
         style="stop-opacity:1;stop-color:#127dcb" /></linearGradient><clipPath
       id="clipPath172"
       clipPathUnits="userSpaceOnUse"><path
         id="path170"
         d="m 486.23,2479.79 c 26.497,26.48 54.786,51.12 84.485,74.05 -15.727,3.16 -32,4.86 -48.649,4.86 -33.984,0 -66.371,-6.89 -95.839,-19.35 -25.805,-10.92 -49.352,-26.11 -69.778,-44.7 -2.89,-2.61 -5.711,-5.32 -8.469,-8.06 -0.203,-0.2 -0.386,-0.42 -0.589,-0.62 -19.266,-17.51 -41.36,-31.9 -65.438,-42.65 0,-94.69 0,-189.25 0,-283.88 5.102,14.06 10.524,27.98 16.317,41.68 44.304,104.97 108.593,199.44 187.96,278.67 z" /></clipPath><linearGradient
       id="linearGradient180"
       spreadMethod="pad"
       gradientTransform="matrix(288.761,0,0,-288.761,281.954,2359.07)"
       gradientUnits="userSpaceOnUse"
       y2="0"
       x2="1"
       y1="0"
       x1="0"><stop
         id="stop174"
         offset="0"
         style="stop-opacity:1;stop-color:#564ca9" /><stop
         id="stop176"
         offset="0.5"
         style="stop-opacity:1;stop-color:#2e3191" /><stop
         id="stop178"
         offset="1"
         style="stop-opacity:1;stop-color:#413d75" /></linearGradient><clipPath
       id="clipPath190"
       clipPathUnits="userSpaceOnUse"><path
         id="path188"
         d="m 1106.46,3168.59 c -17.36,-20.87 -35.65,-40.96 -54.83,-60.13 -79.353,-79.31 -173.853,-143.58 -278.767,-187.96 -38.297,-16.2 -78.031,-29.67 -118.855,-40.35 -71.074,-18.61 -145.641,-28.58 -222.52,-28.58 -30.879,0 -61.355,1.63 -91.398,4.74 1.754,-1.47 3.594,-2.83 5.289,-4.34 0.879,-0.9 1.711,-1.85 2.601,-2.74 3.379,-3.37 6.872,-6.62 10.45,-9.79 19.968,-17.79 42.808,-32.39 67.797,-42.96 29.468,-12.46 61.855,-19.35 95.839,-19.35 34,0 66.387,6.89 95.829,19.35 14.015,5.93 27.14,13.4 39.707,21.75 1.238,0.84 2.586,1.54 3.851,2.4 8.426,5.84 16.59,12.01 24.238,18.81 3.567,3.17 7.071,6.42 10.438,9.79 0.918,0.89 1.75,1.84 2.644,2.74 0.661,0.6 1.434,1.15 2.125,1.74 19.465,16.96 41.516,31 65.641,41.19 29.469,12.48 61.84,19.36 95.824,19.36 34.016,0 66.387,-6.88 95.828,-19.36 29.469,-12.44 55.979,-30.47 78.259,-52.74 22.29,-22.25 40.31,-48.75 52.76,-78.2 3.74,-8.88 6.82,-18.11 9.52,-27.48 2.56,0.03 5.09,0.2 7.64,0.2 121.08,0 236.48,-24.55 341.39,-68.95 6.22,-2.61 12.23,-5.53 18.35,-8.28 3.56,217.75 -116.44,437.54 -359.65,509.14 z" /></clipPath><linearGradient
       id="linearGradient198"
       spreadMethod="pad"
       gradientTransform="matrix(1126.1,0,0,-1126.1,340.088,2914.02)"
       gradientUnits="userSpaceOnUse"
       y2="0"
       x2="1"
       y1="0"
       x1="0"><stop
         id="stop192"
         offset="0"
         style="stop-opacity:1;stop-color:#225597" /><stop
         id="stop194"
         offset="0.994382"
         style="stop-opacity:1;stop-color:#127dcb" /><stop
         id="stop196"
         offset="1"
         style="stop-opacity:1;stop-color:#127dcb" /></linearGradient><clipPath
       id="clipPath208"
       clipPathUnits="userSpaceOnUse"><path
         id="path206"
         d="m 661.453,1708.73 v 436.73 h 197.145 l 254.422,-436.73 h 423.99 35.68 l -168.71,271.97 c -59.83,12.58 -117.59,30.71 -172.68,53.98 -113.25,47.91 -215.17,117.2 -300.796,202.79 -59.254,59.17 -110.488,126.37 -152.438,199.57 -3.851,1.4 -7.761,2.64 -11.527,4.22 -24.152,10.19 -46.203,24.29 -65.695,41.26 -1.324,1.18 -2.789,2.24 -4.114,3.45 -0.203,0.2 -0.375,0.42 -0.601,0.62 -2.734,2.74 -5.551,5.45 -8.457,8.06 -8.223,7.48 -17.074,14.25 -26.219,20.56 -13.629,9.4 -28.133,17.59 -43.558,24.14 -15.008,6.35 -30.821,11.21 -47.18,14.49 -29.699,-22.93 -57.988,-47.57 -84.485,-74.05 -79.367,-79.23 -143.656,-173.7 -187.96,-278.67 -5.793,-13.7 -11.215,-27.62 -16.317,-41.68 0,-150.23 0,-300.53 0,-450.71 122.953,0 252.274,0 379.5,0 z" /></clipPath><linearGradient
       id="linearGradient214"
       spreadMethod="pad"
       gradientTransform="matrix(1290.74,0,0,-1290.74,281.954,2131.28)"
       gradientUnits="userSpaceOnUse"
       y2="0"
       x2="1"
       y1="0"
       x1="0"><stop
         id="stop210"
         offset="0"
         style="stop-opacity:1;stop-color:#ec0969" /><stop
         id="stop212"
         offset="1"
         style="stop-opacity:1;stop-color:#a5128e" /></linearGradient><clipPath
       id="clipPath224"
       clipPathUnits="userSpaceOnUse"><path
         id="path222"
         d="M 0,0 H 4283 V 3217 H 0 Z" /></clipPath><clipPath
       id="clipPath230"
       clipPathUnits="userSpaceOnUse"><path
         id="path228"
         d="m 2454.97,2736.94 c 26.28,0 51.21,0 75.45,0 9.97,55.07 15.44,111.71 15.44,169.67 0,91.23 -13.14,179.35 -37.27,262.9 -338.14,132.5 -833.66,-11.69 -825.3,-432.57 3.34,-253.42 135.19,-375.66 348.06,-427.69 57.85,-14.13 121.59,-23.14 190.45,-28.12 28.35,-1.62 55.78,-3.79 81.6,-6.95 69.72,77.43 126.93,166.48 168.11,263.96 3.36,7.92 6.35,16.02 9.48,24.05 -61.18,12.16 -125.87,20.15 -191.11,27.27 -3.62,0.4 -7.24,0.81 -10.86,1.19 -133.55,14.84 -243.78,38.17 -235.33,150.51 12.74,175.99 411.28,192.94 411.28,-4.22 z" /></clipPath><linearGradient
       id="linearGradient238"
       spreadMethod="pad"
       gradientTransform="matrix(862.667,0,0,-862.667,1683.19,2745.64)"
       gradientUnits="userSpaceOnUse"
       y2="0"
       x2="1"
       y1="0"
       x1="0"><stop
         id="stop232"
         offset="0"
         style="stop-opacity:1;stop-color:#564ca9" /><stop
         id="stop234"
         offset="0.5"
         style="stop-opacity:1;stop-color:#2e3191" /><stop
         id="stop236"
         offset="1"
         style="stop-opacity:1;stop-color:#413d75" /></linearGradient><clipPath
       id="clipPath248"
       clipPathUnits="userSpaceOnUse"><path
         id="path246"
         d="m 1966.55,2162.42 c -12.36,0 -24.67,0 -36.77,0 -89.62,0 -174.09,0 -267.7,0 -0.95,-73.99 13.82,-139.36 40.59,-196.39 80.33,8.7 157.64,27.49 230.64,55.02 11.01,4.14 21.97,8.37 32.75,12.91 0.6,0.24 1.27,0.46 1.87,0.72 33.3,14.1 65.47,30.24 96.69,47.9 -22.2,21.33 -35.77,47.84 -35.77,79.84 -21.27,0 -41.92,0 -62.3,0 z" /></clipPath><linearGradient
       id="linearGradient256"
       spreadMethod="pad"
       gradientTransform="matrix(402.588,0,0,-402.588,1662.03,2064.23)"
       gradientUnits="userSpaceOnUse"
       y2="0"
       x2="1"
       y1="0"
       x1="0"><stop
         id="stop250"
         offset="0"
         style="stop-opacity:1;stop-color:#564ca9" /><stop
         id="stop252"
         offset="0.5"
         style="stop-opacity:1;stop-color:#2e3191" /><stop
         id="stop254"
         offset="1"
         style="stop-opacity:1;stop-color:#413d75" /></linearGradient><clipPath
       id="clipPath266"
       clipPathUnits="userSpaceOnUse"><path
         id="path264"
         d="m 1466.11,2659.45 c -6.12,2.75 -12.13,5.67 -18.35,8.28 -104.91,44.4 -220.31,68.95 -341.39,68.95 -2.55,0 -5.08,-0.17 -7.64,-0.2 6.26,-21.74 9.83,-44.64 9.83,-68.39 0,-33.99 -6.9,-66.37 -19.35,-95.87 -12.45,-29.45 -30.47,-55.96 -52.76,-78.2 -22.28,-22.28 -48.79,-40.31 -78.259,-52.76 -29.441,-12.48 -61.812,-19.37 -95.828,-19.37 -29.64,0 -57.961,5.53 -84.297,15.15 41.95,-73.2 93.184,-140.4 152.438,-199.57 85.626,-85.59 187.546,-154.88 300.796,-202.79 55.09,-23.27 112.85,-41.4 172.68,-53.98 l -157.42,253.78 c 143.82,97.48 216.85,260.65 219.55,424.97 z" /></clipPath><linearGradient
       id="linearGradient274"
       spreadMethod="pad"
       gradientTransform="matrix(688.041,0,0,-688.041,778.068,2358.69)"
       gradientUnits="userSpaceOnUse"
       y2="0"
       x2="1"
       y1="0"
       x1="0"><stop
         id="stop268"
         offset="0"
         style="stop-opacity:1;stop-color:#564ca9" /><stop
         id="stop270"
         offset="0.5"
         style="stop-opacity:1;stop-color:#2e3191" /><stop
         id="stop272"
         offset="1"
         style="stop-opacity:1;stop-color:#413d75" /></linearGradient><clipPath
       id="clipPath284"
       clipPathUnits="userSpaceOnUse"><path
         id="path282"
         d="m 932.805,3192.75 c -78.059,0 -156.664,0 -235.356,0 -139.258,0 -278.672,0 -415.496,0 0,-100.06 0,-200 0,-299.93 21.133,-9.41 40.641,-21.8 58.137,-36.51 30.043,-3.11 60.519,-4.74 91.398,-4.74 76.879,0 151.446,9.97 222.52,28.58 40.824,10.68 80.558,24.15 118.855,40.35 104.914,44.38 199.414,108.65 278.767,187.96 19.18,19.17 37.47,39.26 54.83,60.13 -52.21,15.37 -110.116,23.94 -173.655,24.16 z" /></clipPath><linearGradient
       id="linearGradient292"
       spreadMethod="pad"
       gradientTransform="matrix(824.509,0,0,-824.509,281.954,3022.16)"
       gradientUnits="userSpaceOnUse"
       y2="0"
       x2="1"
       y1="0"
       x1="0"><stop
         id="stop286"
         offset="0"
         style="stop-opacity:1;stop-color:#564ca9" /><stop
         id="stop288"
         offset="0.5"
         style="stop-opacity:1;stop-color:#2e3191" /><stop
         id="stop290"
         offset="1"
         style="stop-opacity:1;stop-color:#413d75" /></linearGradient></defs><g
     transform="matrix(1.3333333,0,0,-1.3333333,0,428.94667)"
     id="g10"><g
       transform="scale(0.1)"
       id="g12"><path
         id="path14"
         style="fill:#231f20;fill-opacity:1;fill-rule:nonzero;stroke:none"
         d="m 150.336,927.371 c 7.187,0 14.379,0.988 21.57,2.981 7.18,1.988 13.774,5.359 19.774,10.136 5.988,4.762 10.867,11.114 14.66,19.082 3.805,7.942 5.695,17.879 5.695,29.789 0,20.661 -5.797,35.871 -17.359,45.601 -11.598,9.72 -26.574,14.61 -44.938,14.61 H 87.4453 V 927.371 Z m 151.555,67.09 c 0,-11.191 -1.411,-22.25 -4.2,-33.242 -2.789,-10.981 -7.089,-21.18 -12.871,-30.551 -5.797,-9.387 -13.09,-17.77 -21.867,-25.148 -8.789,-7.411 -19.16,-13.09 -31.144,-17.079 v -0.601 c 17.156,-5.59 29.535,-14.981 37.132,-28.141 7.582,-13.187 13.567,-27.758 17.969,-43.738 l 32.949,-114.992 h -88.05 c -5.204,17.961 -10.387,35.832 -15.575,53.59 -5.203,17.769 -10.386,35.839 -15.578,54.222 -6.39,22.75 -15.277,38.129 -26.652,46.11 -11.379,7.988 -25.457,11.988 -42.234,11.988 H 87.4453 V 700.969 H 0 v 411.501 h 167.113 c 23.567,0 43.821,-3.11 60.801,-9.28 16.969,-6.21 30.945,-14.69 41.926,-25.47 10.969,-10.78 19.062,-23.36 24.265,-37.73 5.184,-14.38 7.786,-29.56 7.786,-45.529" /><path
         id="path16"
         style="fill:#231f20;fill-opacity:1;fill-rule:nonzero;stroke:none"
         d="m 455.754,694.371 c -19.566,0 -35.242,2.598 -47.012,7.789 -11.797,5.192 -20.879,12.379 -27.254,21.559 -6.394,9.179 -10.593,19.769 -12.582,31.742 -2.004,11.988 -2.992,24.961 -2.992,38.937 V 995.059 H 451.57 V 812.961 c 0,-7.172 0.375,-13.973 1.192,-20.352 0.797,-6.39 2.586,-11.98 5.386,-16.781 2.793,-4.777 6.79,-8.598 11.989,-11.387 5.187,-2.793 12.363,-4.179 21.558,-4.179 8.383,0 18.266,2.187 29.653,6.59 11.375,4.386 22.461,11.378 33.242,20.968 v 207.239 c 14.383,0 28.644,0.101 42.828,0.3 14.164,0.192 28.445,0.289 42.828,0.289 V 700.969 H 560.59 c -0.817,5.172 -1.207,10.371 -1.207,15.57 0,5.172 -0.406,10.57 -1.203,16.172 l -2.403,1.187 c -9.179,-7.988 -18.461,-14.468 -27.847,-19.457 -9.387,-5 -18.465,-8.98 -27.254,-11.98 -8.793,-3 -17.071,-5.09 -24.86,-6.289 -7.785,-1.192 -14.468,-1.801 -20.062,-1.801" /><path
         id="path18"
         style="fill:#231f20;fill-opacity:1;fill-rule:nonzero;stroke:none"
         d="m 819.52,1002.26 c 15.574,0 32.832,-1.71 51.804,-5.1 18.961,-3.398 36.246,-9.281 51.809,-17.68 -0.801,-1.582 -2.094,-4.878 -3.879,-9.878 -1.801,-4.993 -3.606,-10.383 -5.406,-16.172 -1.785,-5.789 -3.586,-11.282 -5.375,-16.469 -1.801,-5.199 -3.11,-8.602 -3.907,-10.18 -15.968,6 -30.746,10.078 -44.328,12.289 -13.566,2.192 -26.148,3.282 -37.726,3.282 -10.782,0 -20.66,-1.704 -29.653,-5.102 -8.976,-3.379 -13.468,-10.68 -13.468,-21.852 0,-4 1.687,-7.476 5.086,-10.476 3.386,-2.992 7.586,-5.692 12.582,-8.094 4.984,-2.387 10.574,-4.398 16.761,-6 6.196,-1.59 12.075,-3.187 17.668,-4.789 12.379,-3.59 24.961,-7.68 37.746,-12.277 12.77,-4.59 24.45,-10.672 35.039,-18.274 10.579,-7.59 19.262,-17.058 26.051,-28.449 6.797,-11.371 10.184,-25.66 10.184,-42.809 0,-28.359 -11.379,-50.14 -34.141,-65.3 -22.765,-15.168 -57.109,-22.758 -103.019,-22.758 -8.395,0 -17.676,0.398 -27.864,1.199 -10.168,0.809 -20.66,2.199 -31.437,4.199 -10.781,1.989 -21.371,4.481 -31.746,7.481 -10.387,2.988 -19.973,6.679 -28.75,11.078 l 18.57,53.301 c 24.348,-8.789 45.309,-14.258 62.887,-16.461 17.566,-2.199 31.336,-3.297 41.336,-3.297 13.972,0 25.758,2.297 35.332,6.887 9.586,4.589 14.383,13.082 14.383,25.453 0,5.988 -1.598,10.886 -4.797,14.679 -3.196,3.797 -7.481,7.09 -12.871,9.887 -5.407,2.793 -11.391,5.172 -17.973,7.184 -6.598,2 -13.09,3.976 -19.469,6 -13.582,3.976 -26.758,8.277 -39.527,12.867 -12.785,4.59 -24.074,10.082 -33.852,16.473 -9.793,6.398 -17.664,14.367 -23.664,23.957 -5.988,9.589 -8.976,21.57 -8.976,35.941 0,28.359 10.574,50.309 31.738,65.891 21.172,15.57 52.113,23.369 92.852,23.369" /><path
         id="path20"
         style="fill:#231f20;fill-opacity:1;fill-rule:nonzero;stroke:none"
         d="m 1103.8,1002.26 c 15.57,0 32.83,-1.71 51.81,-5.1 18.96,-3.398 36.24,-9.281 51.8,-17.68 -0.8,-1.582 -2.09,-4.878 -3.88,-9.878 -1.8,-4.993 -3.6,-10.383 -5.4,-16.172 -1.79,-5.789 -3.59,-11.282 -5.39,-16.469 -1.79,-5.199 -3.09,-8.602 -3.89,-10.18 -15.97,6 -30.75,10.078 -44.33,12.289 -13.57,2.192 -26.15,3.282 -37.73,3.282 -10.78,0 -20.67,-1.704 -29.65,-5.102 -8.98,-3.379 -13.47,-10.68 -13.47,-21.852 0,-4 1.69,-7.476 5.09,-10.476 3.38,-2.992 7.58,-5.692 12.58,-8.094 4.98,-2.387 10.56,-4.398 16.76,-6 6.19,-1.59 12.08,-3.187 17.67,-4.789 12.38,-3.59 24.96,-7.68 37.74,-12.277 12.77,-4.59 24.45,-10.672 35.05,-18.274 10.57,-7.59 19.24,-17.058 26.05,-28.449 6.78,-11.371 10.18,-25.66 10.18,-42.809 0,-28.359 -11.38,-50.14 -34.14,-65.3 -22.77,-15.168 -57.11,-22.758 -103.03,-22.758 -8.39,0 -17.67,0.398 -27.85,1.199 -10.19,0.809 -20.66,2.199 -31.44,4.199 -10.78,1.989 -21.37,4.481 -31.76,7.481 -10.375,2.988 -19.965,6.679 -28.738,11.078 l 18.566,53.301 c 24.352,-8.789 45.312,-14.258 62.892,-16.461 17.56,-2.199 31.34,-3.297 41.33,-3.297 13.98,0 25.75,2.297 35.34,6.887 9.58,4.589 14.38,13.082 14.38,25.453 0,5.988 -1.6,10.886 -4.8,14.679 -3.19,3.797 -7.48,7.09 -12.88,9.887 -5.39,2.793 -11.38,5.172 -17.96,7.184 -6.6,2 -13.09,3.976 -19.47,6 -13.58,3.976 -26.76,8.277 -39.53,12.867 -12.8,4.59 -24.07,10.082 -33.85,16.473 -9.79,6.398 -17.662,14.367 -23.662,23.957 -5.989,9.589 -8.981,21.57 -8.981,35.941 0,28.359 10.578,50.309 31.743,65.891 21.17,15.57 52.11,23.369 92.85,23.369" /><path
         id="path22"
         style="fill:#231f20;fill-opacity:1;fill-rule:nonzero;stroke:none"
         d="m 1274.92,700.969 v 294.09 h 85.66 v -294.09 z m 93.45,375.561 c 0,-12.79 -4.3,-23.58 -12.89,-32.35 -8.58,-8.79 -21.25,-13.18 -38.03,-13.18 -15.97,0 -28.14,4.39 -36.54,13.18 -8.38,8.77 -12.58,19.56 -12.58,32.35 0,13.16 4.3,24.14 12.88,32.93 8.59,8.79 20.66,13.18 36.24,13.18 16.78,0 29.45,-4.39 38.03,-13.18 8.59,-8.79 12.89,-19.77 12.89,-32.93" /><path
         id="path24"
         style="fill:#231f20;fill-opacity:1;fill-rule:nonzero;stroke:none"
         d="m 1541.1,827.941 c -27.56,-2.39 -41.33,-15.769 -41.33,-40.121 0,-12.379 3.2,-21.781 9.59,-28.16 6.38,-6.39 16.56,-9.57 30.55,-9.57 9.18,0 19.17,2.281 29.94,6.879 10.78,4.582 20.97,11.09 30.56,19.461 v 56.308 z m 140.77,-70.082 h 38.33 l 4.2,-47.91 c -9.58,-4.398 -20.77,-7.988 -33.54,-10.777 -12.79,-2.793 -25.57,-4.192 -38.34,-4.192 -12.79,0 -23.47,2.18 -32.05,6.59 -8.59,4.379 -13.69,13.961 -15.27,28.75 l -1.2,1.2 c -10.39,-9.2 -20.77,-16.18 -31.15,-20.961 -10.39,-4.809 -20.06,-8.399 -29.04,-10.797 -9,-2.391 -17.17,-3.793 -24.57,-4.184 -7.39,-0.387 -13.07,-0.598 -17.07,-0.598 -18.36,0 -33.44,2.879 -45.23,8.68 -11.78,5.781 -21.06,12.969 -27.85,21.559 -6.8,8.582 -11.47,17.871 -14.06,27.859 -2.61,9.973 -3.91,19.16 -3.91,27.551 0,15.172 2.79,28.441 8.4,39.832 5.58,11.391 13.27,20.969 23.06,28.75 9.77,7.789 21.26,13.879 34.43,18.258 13.19,4.402 27.56,6.992 43.13,7.801 11.58,0.789 24.96,1.589 40.13,2.402 15.18,0.789 28.54,1.578 40.14,2.379 v 7.199 c 0,16.762 -3.59,29.441 -10.78,38.031 -7.19,8.59 -21.78,12.879 -43.73,12.879 -14.38,0 -30.06,-1.398 -47.02,-4.191 -16.98,-2.809 -32.45,-6.391 -46.43,-10.778 -2,9.18 -4.19,18.168 -6.58,26.95 -2.39,8.769 -4.79,17.558 -7.19,26.347 17.57,7.582 37.93,13.582 61.09,17.973 23.16,4.391 45.33,6.579 66.5,6.579 17.56,0 33.54,-1.79 47.91,-5.392 14.38,-3.589 26.56,-9.378 36.54,-17.359 9.98,-7.988 17.66,-18.461 23.07,-31.449 5.39,-12.969 8.08,-29.039 8.08,-48.211 v -140.77" /><path
         id="path26"
         style="fill:#231f20;fill-opacity:1;fill-rule:nonzero;stroke:none"
         d="m 1956.44,700.969 v 182.082 c 0,7.578 -0.4,14.57 -1.2,20.961 -0.8,6.386 -2.71,11.988 -5.73,16.777 -3,4.781 -7.33,8.481 -12.94,11.07 -5.63,2.602 -13.06,3.911 -22.29,3.911 -10.04,0 -21.27,-2.211 -33.72,-6.598 -12.45,-4.402 -23.71,-9.594 -33.73,-15.57 V 700.969 h -85.66 v 294.09 h 80.88 l 1.18,-26.95 2.41,-1.191 c 17.21,11.582 35.34,20.363 54.36,26.352 19.03,5.98 35.55,8.99 49.57,8.99 19.63,0 35.45,-2.701 47.46,-8.088 12.02,-5.402 21.33,-12.684 27.94,-21.863 6.61,-9.2 11.11,-19.981 13.53,-32.36 2.39,-12.371 3.6,-25.347 3.6,-38.929 V 700.969 h -85.66" /><path
         id="path28"
         style="fill:#231f20;fill-opacity:1;fill-rule:nonzero;stroke:none"
         d="m 2434.41,1120.85 c 20.37,0 42.13,-2.1 65.29,-6.29 23.16,-4.2 44.93,-11.88 65.29,-23.07 l -22.76,-59.89 c -20.36,8.39 -40.24,13.87 -59.6,16.48 -19.37,2.59 -36.44,3.88 -51.21,3.88 -18.77,0 -33.55,-4.38 -44.33,-13.16 -10.78,-8.79 -16.17,-21.98 -16.17,-39.55 0,-7.98 2.3,-14.672 6.89,-20.059 4.59,-5.402 10.68,-10.082 18.27,-14.07 7.57,-4 16.26,-7.402 26.05,-10.191 9.79,-2.801 20.08,-5.391 30.86,-7.789 13.96,-3.602 29.04,-7.782 45.21,-12.582 16.19,-4.778 31.15,-11.778 44.94,-20.957 13.77,-9.204 25.14,-21.372 34.14,-36.543 8.97,-15.18 13.46,-34.938 13.46,-59.297 0,-39.141 -14.36,-69.391 -43.11,-90.742 -28.75,-21.372 -72.09,-32.04 -129.99,-32.04 -10.38,0 -21.86,0.598 -34.44,1.79 -12.58,1.21 -25.45,3.089 -38.63,5.691 -13.18,2.59 -26.36,5.988 -39.53,10.168 -13.18,4.199 -25.76,9.289 -37.75,15.269 l 22.77,62.313 c 29.14,-11.59 55.31,-18.973 78.47,-22.152 23.15,-3.207 41.72,-4.809 55.71,-4.809 24.35,0 42.71,4.102 55.11,12.289 12.36,8.18 18.56,22.242 18.56,42.223 0,8.789 -1.6,16.066 -4.79,21.859 -3.2,5.777 -7.79,10.801 -13.77,14.981 -6.01,4.179 -13.18,7.687 -21.56,10.476 -8.4,2.781 -17.6,5.59 -27.56,8.383 -20.37,5.199 -39.74,10.5 -58.11,15.879 -18.37,5.39 -34.54,12.48 -48.51,21.262 -13.99,8.777 -25.07,19.859 -33.24,33.238 -8.2,13.379 -12.28,30.66 -12.28,51.808 0,37.542 13.06,67.792 39.23,90.762 26.15,22.95 65.18,34.44 117.09,34.44" /><path
         id="path30"
         style="fill:#231f20;fill-opacity:1;fill-rule:nonzero;stroke:none"
         d="m 2720.12,848.309 c 0,-27.168 5.09,-48.418 15.28,-63.789 10.18,-15.372 28.65,-23.071 55.41,-23.071 13.96,0 27.34,1.41 40.12,4.211 12.79,2.789 25.76,6.379 38.94,10.77 l 16.17,-56.891 c -14.78,-7.598 -31.85,-13.398 -51.21,-17.379 -19.38,-3.98 -39.24,-5.988 -59.6,-5.988 -28.35,0 -51.61,3.879 -69.79,11.68 -18.17,7.777 -32.64,18.468 -43.42,32.039 -10.78,13.578 -18.26,29.359 -22.46,47.328 -4.19,17.972 -6.29,37.133 -6.29,57.5 0,17.16 2,35.031 5.98,53.601 4,18.578 11.39,35.551 22.17,50.918 10.78,15.371 25.56,27.953 44.33,37.742 18.75,9.782 43.12,14.67 73.07,14.67 12.77,0 27.05,-0.9 42.83,-2.701 15.78,-1.789 32.05,-5.679 48.81,-11.668 -2,-9.992 -4.09,-19.871 -6.28,-29.652 -2.2,-9.789 -4.49,-19.879 -6.89,-30.258 -12.79,3.598 -24.47,5.899 -35.04,6.891 -10.58,1 -20.27,1.508 -29.05,1.508 -23.95,0 -42.14,-7.7 -54.5,-23.071 -12.38,-15.371 -18.58,-36.828 -18.58,-64.39" /><path
         id="path32"
         style="fill:#231f20;fill-opacity:1;fill-rule:nonzero;stroke:none"
         d="m 2931.02,700.969 v 294.09 h 85.65 v -294.09 z m 93.44,375.561 c 0,-12.79 -4.3,-23.58 -12.88,-32.35 -8.59,-8.79 -21.26,-13.18 -38.04,-13.18 -15.97,0 -28.14,4.39 -36.54,13.18 -8.38,8.77 -12.58,19.56 -12.58,32.35 0,13.16 4.3,24.14 12.89,32.93 8.58,8.79 20.66,13.18 36.23,13.18 16.78,0 29.45,-4.39 38.04,-13.18 8.58,-8.79 12.88,-19.77 12.88,-32.93" /><path
         id="path34"
         style="fill:#231f20;fill-opacity:1;fill-rule:nonzero;stroke:none"
         d="m 3219.26,948.352 c -10.83,0 -19.87,-1.821 -27.09,-5.403 -7.24,-3.59 -13.15,-8.488 -17.77,-14.679 -4.62,-6.2 -8.13,-13.379 -10.55,-21.559 -2.41,-8.191 -4,-16.68 -4.8,-25.449 h 113.81 c -0.42,19.547 -4.33,35.636 -11.75,48.218 -7.44,12.579 -21.39,18.872 -41.85,18.872 z m -3.32,54.508 c 31.55,0 56.31,-5.008 74.28,-14.981 17.97,-9.981 31.45,-22.367 40.43,-37.129 8.99,-14.789 14.57,-30.469 16.78,-47.031 2.18,-16.578 3.28,-31.449 3.28,-44.629 v -30.551 h -192.87 c 0,-22.961 5.7,-40.269 17.07,-51.949 11.39,-11.68 30.25,-17.52 56.6,-17.52 15.98,0 31.95,1.68 47.93,5.078 15.96,3.391 31.54,7.891 46.72,13.481 l 17.36,-52.399 c -19.57,-10.66 -40.12,-18.179 -61.68,-22.531 -21.58,-4.347 -42.53,-6.527 -62.89,-6.527 -29.57,0 -53.88,4.098 -72.95,12.277 -19.08,8.18 -34.07,19.25 -44.96,33.242 -10.91,13.977 -18.44,30.039 -22.61,48.219 -4.17,18.168 -6.23,37.442 -6.23,57.809 0,15.961 1.99,33.133 5.98,51.511 3.98,18.36 11.38,35.129 22.16,50.309 10.78,15.172 25.47,27.852 44.03,38.039 18.57,10.184 42.42,15.282 71.57,15.282" /><path
         id="path36"
         style="fill:#231f20;fill-opacity:1;fill-rule:nonzero;stroke:none"
         d="m 3595.58,700.969 v 182.082 c 0,7.578 -0.41,14.57 -1.21,20.961 -0.81,6.386 -2.71,11.988 -5.72,16.777 -3.01,4.781 -7.34,8.481 -12.96,11.07 -5.62,2.602 -13.05,3.911 -22.28,3.911 -10.03,0 -21.27,-2.211 -33.71,-6.598 -12.45,-4.402 -23.71,-9.594 -33.73,-15.57 V 700.969 h -85.66 v 294.09 h 80.88 l 1.17,-26.95 2.42,-1.191 c 17.21,11.582 35.34,20.363 54.36,26.352 19.03,5.98 35.55,8.99 49.57,8.99 19.63,0 35.45,-2.701 47.46,-8.088 12.01,-5.402 21.33,-12.684 27.94,-21.863 6.61,-9.2 11.11,-19.981 13.52,-32.36 2.39,-12.371 3.61,-25.347 3.61,-38.929 V 700.969 h -85.66" /><path
         id="path38"
         style="fill:#231f20;fill-opacity:1;fill-rule:nonzero;stroke:none"
         d="m 3816.48,848.309 c 0,-27.168 5.08,-48.418 15.27,-63.789 10.18,-15.372 28.65,-23.071 55.41,-23.071 13.97,0 27.35,1.41 40.12,4.211 12.79,2.789 25.76,6.379 38.95,10.77 l 16.16,-56.891 c -14.76,-7.598 -31.85,-13.398 -51.2,-17.379 -19.38,-3.98 -39.24,-5.988 -59.61,-5.988 -28.36,0 -51.62,3.879 -69.78,11.68 -18.17,7.777 -32.64,18.468 -43.42,32.039 -10.78,13.578 -18.28,29.359 -22.47,47.328 -4.19,17.972 -6.28,37.133 -6.28,57.5 0,17.16 1.99,35.031 5.98,53.601 3.99,18.578 11.38,35.551 22.16,50.918 10.79,15.371 25.55,27.953 44.34,37.742 18.76,9.782 43.12,14.67 73.07,14.67 12.77,0 27.04,-0.9 42.82,-2.701 15.78,-1.789 32.04,-5.679 48.83,-11.668 -2.01,-9.992 -4.12,-19.871 -6.29,-29.652 -2.21,-9.789 -4.51,-19.879 -6.9,-30.258 -12.79,3.598 -24.47,5.899 -35.05,6.891 -10.57,1 -20.26,1.508 -29.04,1.508 -23.95,0 -42.13,-7.7 -54.51,-23.071 -12.37,-15.371 -18.56,-36.828 -18.56,-64.39" /><path
         id="path40"
         style="fill:#231f20;fill-opacity:1;fill-rule:nonzero;stroke:none"
         d="m 4151.91,948.352 c -10.84,0 -19.87,-1.821 -27.09,-5.403 -7.22,-3.59 -13.15,-8.488 -17.77,-14.679 -4.62,-6.2 -8.14,-13.379 -10.53,-21.559 -2.42,-8.191 -4.01,-16.68 -4.83,-25.449 h 113.82 c -0.41,19.547 -4.32,35.636 -11.76,48.218 -7.42,12.579 -21.37,18.872 -41.84,18.872 z m -3.31,54.508 c 31.54,0 56.31,-5.008 74.28,-14.981 17.96,-9.981 31.44,-22.367 40.42,-37.129 8.99,-14.789 14.57,-30.469 16.78,-47.031 2.19,-16.578 3.28,-31.449 3.28,-44.629 V 828.539 H 4090.5 c 0,-22.961 5.68,-40.269 17.07,-51.949 11.38,-11.68 30.25,-17.52 56.6,-17.52 15.97,0 31.94,1.68 47.92,5.078 15.96,3.391 31.53,7.891 46.72,13.481 l 17.37,-52.399 c -19.57,-10.66 -40.14,-18.179 -61.7,-22.531 -21.56,-4.347 -42.52,-6.527 -62.89,-6.527 -29.55,0 -53.87,4.098 -72.93,12.277 -19.07,8.18 -34.07,19.25 -44.98,33.242 -10.89,13.977 -18.43,30.039 -22.6,48.219 -4.16,18.168 -6.24,37.442 -6.24,57.809 0,15.961 1.99,33.133 5.99,51.511 3.98,18.36 11.39,35.129 22.17,50.309 10.78,15.172 25.45,27.852 44.02,38.039 18.57,10.184 42.42,15.282 71.58,15.282" /><path
         id="path42"
         style="fill:#231f20;fill-opacity:1;fill-rule:nonzero;stroke:none"
         d="M 644.086,6.58984 V 418.691 H 925.012 V 355.789 H 732.734 V 244.391 H 883.086 V 184.488 H 732.734 V 6.58984 h -88.648" /><path
         id="path44"
         style="fill:#231f20;fill-opacity:1;fill-rule:nonzero;stroke:none"
         d="m 1152.2,153.34 c 0,11.582 -0.81,22.949 -2.4,34.14 -1.59,11.168 -4.49,21.168 -8.68,29.961 -4.2,8.77 -10.1,15.86 -17.69,21.25 -7.58,5.411 -17.56,8.09 -29.94,8.09 -12.37,0 -22.56,-2.679 -30.55,-8.09 -7.99,-5.39 -14.37,-12.48 -19.16,-21.25 -4.8,-8.793 -8.08,-18.793 -9.88,-29.961 -1.8,-11.191 -2.7,-22.558 -2.7,-34.14 0,-13.18 0.8,-25.352 2.39,-36.539 1.59,-11.18 4.7,-20.8713 9.29,-29.051 4.59,-8.1797 10.88,-14.6719 18.87,-19.4687 7.98,-4.793 18.56,-7.1797 31.74,-7.1797 11.99,0 21.87,2.4687 29.65,7.4882 7.79,4.9883 13.78,11.7618 17.98,20.3594 4.19,8.5899 7.09,18.4728 8.68,29.6528 1.59,11.179 2.4,22.757 2.4,34.738 z m 88.65,0.601 c 0,-20.371 -2.6,-39.839 -7.8,-58.4097 -5.19,-18.5625 -13.78,-34.9532 -25.75,-49.1016 -11.98,-14.1914 -27.56,-25.3789 -46.72,-33.5508 -19.17,-8.16796 -42.73,-12.269525 -70.68,-12.269525 -27.16,0 -50.12,3.980465 -68.89,11.968725 -18.77,7.9727 -33.936,18.8711 -45.514,32.6407 C 963.902,59 955.625,75.1719 950.641,93.7305 c -4.996,18.5705 -7.481,38.4375 -7.481,59.6095 0,20.762 2.785,40.43 8.379,59 5.578,18.558 14.367,34.84 26.356,48.808 11.968,13.981 27.445,25.161 46.415,33.551 18.96,8.379 42.03,12.582 69.18,12.582 27.56,0 50.7,-4.101 69.49,-12.281 18.77,-8.191 33.94,-19.379 45.51,-33.539 11.58,-14.18 19.86,-30.563 24.88,-49.121 4.98,-18.57 7.48,-38.039 7.48,-58.399" /><path
         id="path46"
         style="fill:#231f20;fill-opacity:1;fill-rule:nonzero;stroke:none"
         d="m 1377.83,0 c -19.57,0 -35.24,2.60156 -47.02,7.78125 -11.79,5.18755 -20.87,12.37895 -27.26,21.55855 -6.39,9.1915 -10.57,19.7813 -12.57,31.7618 -2,11.9765 -3,24.9492 -3,38.9184 v 200.66 h 85.65 V 118.602 c 0,-7.192 0.4,-13.993 1.21,-20.3637 0.8,-6.3985 2.59,-11.9883 5.39,-16.7774 2.79,-4.7812 6.78,-8.5898 11.98,-11.3828 5.18,-2.789 12.37,-4.1992 21.56,-4.1992 8.39,0 18.27,2.1992 29.64,6.6016 11.39,4.3906 22.48,11.3711 33.26,20.9609 V 300.68 c 14.38,0 28.64,0.101 42.82,0.308 14.17,0.203 28.45,0.301 42.83,0.301 V 6.58984 h -79.67 c -0.8,5.17966 -1.2,10.37896 -1.2,15.57816 0,5.1836 -0.4,10.5625 -1.2,16.1718 l -2.39,1.1915 c -9.18,-7.9922 -18.47,-14.4727 -27.85,-19.4727 -9.39,-5 -18.47,-8.9805 -27.26,-11.96876 C 1413.96,5.07813 1405.68,2.98828 1397.9,1.80078 1390.11,0.609375 1383.42,0 1377.83,0" /><path
         id="path48"
         style="fill:#231f20;fill-opacity:1;fill-rule:nonzero;stroke:none"
         d="M 1816.23,6.58984 V 188.691 c 0,7.571 -0.41,14.559 -1.21,20.95 -0.8,6.39 -2.7,11.98 -5.72,16.781 -3.01,4.789 -7.34,8.476 -12.95,11.078 -5.62,2.59 -13.06,3.891 -22.28,3.891 -10.04,0 -21.27,-2.2 -33.72,-6.582 -12.45,-4.411 -23.71,-9.59 -33.74,-15.579 V 6.58984 h -85.65 V 300.68 h 80.87 l 1.18,-26.95 2.41,-1.191 c 17.22,11.582 35.35,20.371 54.36,26.359 19.04,5.981 35.56,8.993 49.58,8.993 19.62,0 35.44,-2.7 47.46,-8.09 12.01,-5.41 21.32,-12.692 27.93,-21.871 6.61,-9.2 11.12,-19.981 13.53,-32.352 2.4,-12.379 3.6,-25.348 3.6,-38.937 V 6.58984 h -85.65" /><path
         id="path50"
         style="fill:#231f20;fill-opacity:1;fill-rule:nonzero;stroke:none"
         d="m 2156.02,228.871 c -6.82,4.379 -16.05,8.149 -27.69,11.328 -11.64,3.18 -22.27,4.781 -31.9,4.781 -7.23,0 -14.46,-1.289 -21.68,-3.878 -7.24,-2.582 -13.64,-7.473 -19.26,-14.641 -5.63,-7.152 -10.16,-17.121 -13.56,-29.832 -3.41,-12.738 -5.11,-29.07 -5.11,-48.957 0,-17.524 1.49,-31.754 4.51,-42.692 3.03,-10.9605 7.12,-19.6206 12.36,-25.9605 5.21,-6.3789 11.43,-10.7695 18.65,-13.1484 7.22,-2.3828 14.84,-3.582 22.88,-3.582 4.42,0 9.43,0.6914 15.03,2.1015 5.63,1.3711 11.25,3.0782 16.87,5.0703 5.61,1.9688 10.94,4.3672 15.96,7.1602 5.01,2.7891 9.34,5.3789 12.94,7.7578 z m -77.87,79.02 c 9.59,0 21.86,-1.321 36.84,-3.942 14.98,-2.629 28.65,-7.57 41.03,-14.82 v 145.73 h 85.65 V 6.58984 h -79.65 l -1.8,26.33986 c -0.82,0.8203 -1.41,1.2187 -1.8,1.2187 -14.37,-11.5898 -29.86,-19.7773 -46.42,-24.55856 -16.58,-4.80078 -31.25,-7.1914 -44.03,-7.1914 -22.76,0 -41.73,3.89062 -56.91,11.67186 -15.17,7.7891 -27.15,18.2695 -35.93,31.4414 -8.79,13.1875 -14.98,28.5586 -18.56,46.1485 -3.61,17.5388 -5.39,36.1288 -5.39,55.6918 0,22.757 2.17,43.918 6.58,63.488 4.38,19.558 11.68,36.539 21.86,50.922 10.19,14.367 23.26,25.636 39.24,33.84 15.95,8.179 35.72,12.289 59.29,12.289" /><path
         id="path52"
         style="fill:#231f20;fill-opacity:1;fill-rule:nonzero;stroke:none"
         d="m 2415.25,133.57 c -27.54,-2.379 -41.33,-15.781 -41.33,-40.1286 0,-12.3828 3.2,-21.7812 9.59,-28.1523 6.38,-6.3985 16.56,-9.5782 30.55,-9.5782 9.19,0 19.16,2.3008 29.96,6.8907 10.78,4.5898 20.95,11.0898 30.54,19.4492 v 56.3082 z m 140.77,-70.0817 h 38.33 l 4.2,-47.918 C 2588.96,11.1719 2577.78,7.57813 2565.01,4.78906 2552.22,2 2539.44,0.609375 2526.67,0.609375 c -12.78,0 -23.46,2.179685 -32.05,6.582035 -8.59,4.38669 -13.69,13.95699 -15.27,28.74999 l -1.2,1.207 c -10.39,-9.1992 -20.77,-16.1875 -31.14,-20.9687 -10.4,-4.8086 -20.07,-8.39845 -29.05,-10.78907 -9,-2.40235 -17.17,-3.78907 -24.57,-4.19141 -7.38,-0.390626 -13.08,-0.589845 -17.07,-0.589845 -18.36,0 -33.44,2.890625 -45.23,8.671875 -11.76,5.77735 -21.06,12.96875 -27.84,21.57815 -6.79,8.5703 -11.48,17.8711 -14.07,27.8398 -2.61,9.9727 -3.91,19.1719 -3.91,27.5508 0,15.18 2.79,28.449 8.4,39.84 5.58,11.39 13.26,20.961 23.06,28.75 9.77,7.781 21.26,13.871 34.44,18.262 13.18,4.398 27.55,6.976 43.12,7.796 11.58,0.782 24.96,1.582 40.13,2.403 15.18,0.777 28.54,1.578 40.14,2.39 v 7.18 c 0,16.77 -3.59,29.449 -10.78,38.027 -7.19,8.59 -21.78,12.891 -43.73,12.891 -14.38,0 -30.06,-1.41 -47.01,-4.199 -16.99,-2.801 -32.46,-6.391 -46.44,-10.781 -2,9.179 -4.18,18.179 -6.58,26.972 -2.39,8.77 -4.79,17.547 -7.19,26.328 17.57,7.59 37.93,13.59 61.09,17.981 23.16,4.398 45.33,6.582 66.5,6.582 17.56,0 33.54,-1.793 47.91,-5.383 14.38,-3.598 26.56,-9.398 36.54,-17.367 9.98,-7.992 17.66,-18.473 23.07,-31.453 5.39,-12.981 8.08,-29.051 8.08,-48.207 V 63.4883" /><path
         id="path54"
         style="fill:#231f20;fill-opacity:1;fill-rule:nonzero;stroke:none"
         d="m 2728.83,382.148 v -80.859 h 85.64 V 244.98 h -85.64 V 112.012 c 0,-15.5823 2.78,-27.0706 8.38,-34.4534 5.58,-7.3789 15.96,-11.0781 31.15,-11.0781 5.59,0 12.77,0.7109 21.55,2.1093 8.78,1.3907 18.57,3.2891 29.35,5.6915 l 10.79,-55.7032 c -12.8,-5.6093 -26.76,-9.80857 -41.94,-12.59763 -15.18,-2.78906 -29.14,-4.17969 -41.92,-4.17969 -20.37,0 -37.14,2.39844 -50.31,7.17969 -13.18,4.78903 -23.57,11.17973 -31.15,19.16793 -7.59,7.9805 -12.89,17.2618 -15.88,27.8516 -2.99,10.5781 -4.49,21.6719 -4.49,33.2617 V 244.98 h -41.33 v 46.719 l 46.72,13.781 c 1.21,2.411 2.79,6.989 4.79,13.77 1.99,6.801 4,13.969 5.99,21.57 1.99,7.59 3.99,14.758 6,21.578 1.99,6.774 3.38,11.364 4.18,13.762 l 58.12,5.988" /><path
         id="path56"
         style="fill:#231f20;fill-opacity:1;fill-rule:nonzero;stroke:none"
         d="M 2871.39,6.58984 V 300.68 h 85.64 V 6.58984 Z m 93.43,375.55816 c 0,-12.777 -4.29,-23.57 -12.88,-32.347 -8.58,-8.77 -21.25,-13.172 -38.03,-13.172 -15.98,0 -28.15,4.402 -36.54,13.172 -8.38,8.777 -12.58,19.57 -12.58,32.347 0,13.18 4.29,24.153 12.89,32.942 8.57,8.789 20.65,13.172 36.23,13.172 16.78,0 29.45,-4.383 38.03,-13.172 8.59,-8.789 12.88,-19.762 12.88,-32.942" /><path
         id="path58"
         style="fill:#231f20;fill-opacity:1;fill-rule:nonzero;stroke:none"
         d="m 3221.61,153.34 c 0,11.582 -0.81,22.949 -2.41,34.14 -1.6,11.168 -4.49,21.168 -8.69,29.961 -4.18,8.77 -10.08,15.86 -17.66,21.25 -7.59,5.411 -17.58,8.09 -29.95,8.09 -12.38,0 -22.56,-2.679 -30.55,-8.09 -7.99,-5.39 -14.37,-12.48 -19.16,-21.25 -4.8,-8.793 -8.09,-18.793 -9.88,-29.961 -1.8,-11.191 -2.7,-22.558 -2.7,-34.14 0,-13.18 0.8,-25.352 2.4,-36.539 1.58,-11.18 4.69,-20.8713 9.28,-29.051 4.59,-8.1797 10.87,-14.6719 18.87,-19.4687 7.98,-4.793 18.57,-7.1797 31.74,-7.1797 11.97,0 21.87,2.4687 29.65,7.4882 7.79,4.9883 13.78,11.7618 17.96,20.3594 4.2,8.5899 7.09,18.4728 8.69,29.6528 1.6,11.179 2.41,22.757 2.41,34.738 z m 88.64,0.601 c 0,-20.371 -2.6,-39.839 -7.79,-58.4097 -5.19,-18.5625 -13.77,-34.9532 -25.75,-49.1016 -11.98,-14.1914 -27.55,-25.3789 -46.72,-33.5508 -19.17,-8.16796 -42.74,-12.269525 -70.68,-12.269525 -27.16,0 -50.12,3.980465 -68.89,11.968725 -18.77,7.9727 -33.95,18.8711 -45.53,32.6407 -11.57,13.7812 -19.86,29.9531 -24.85,48.5117 -4.99,18.5705 -7.49,38.4375 -7.49,59.6095 0,20.762 2.79,40.43 8.4,59 5.58,18.558 14.37,34.84 26.34,48.808 11.99,13.981 27.46,25.161 46.43,33.551 18.96,8.379 42.01,12.582 69.18,12.582 27.55,0 50.7,-4.101 69.49,-12.281 18.76,-8.191 33.92,-19.379 45.52,-33.539 11.57,-14.18 19.85,-30.563 24.85,-49.121 4.99,-18.57 7.49,-38.039 7.49,-58.399" /><path
         id="path60"
         style="fill:#231f20;fill-opacity:1;fill-rule:nonzero;stroke:none"
         d="M 3553.62,6.58984 V 188.691 c 0,7.571 -0.41,14.559 -1.21,20.95 -0.81,6.39 -2.72,11.98 -5.72,16.781 -3.01,4.789 -7.34,8.476 -12.95,11.078 -5.62,2.59 -13.06,3.891 -22.3,3.891 -10.02,0 -21.25,-2.2 -33.7,-6.582 -12.45,-4.411 -23.71,-9.59 -33.74,-15.579 V 6.58984 h -85.65 V 300.68 h 80.87 l 1.18,-26.95 2.41,-1.191 c 17.22,11.582 35.35,20.371 54.37,26.359 19.03,5.981 35.54,8.993 49.56,8.993 19.63,0 35.45,-2.7 47.47,-8.09 12.01,-5.41 21.32,-12.692 27.93,-21.871 6.62,-9.2 11.12,-19.981 13.53,-32.352 2.38,-12.379 3.6,-25.348 3.6,-38.937 V 6.58984 h -85.65" /><g
         id="g62"><g
           clip-path="url(#clipPath68)"
           id="g64"><path
             id="path78"
             style="fill:url(#linearGradient76);fill-opacity:1;fill-rule:nonzero;stroke:none"
             d="m 2530.42,2736.94 c 94.96,0 178.54,0 284.98,0 2.9,219.35 -130.59,363.52 -306.81,432.57 24.13,-83.55 37.27,-171.67 37.27,-262.9 0,-57.96 -5.47,-114.6 -15.44,-169.67" /></g></g><g
         id="g80"><g
           clip-path="url(#clipPath86)"
           id="g82"><path
             id="path94"
             style="fill:url(#linearGradient92);fill-opacity:1;fill-rule:nonzero;stroke:none"
             d="m 2480.99,2562.19 c -3.13,-8.03 -6.12,-16.13 -9.48,-24.05 -41.18,-97.48 -98.39,-186.53 -168.11,-263.96 109.28,-13.4 189.75,-44.72 189.75,-128.72 0,-144.36 -319.91,-167.25 -428.53,-62.88 -31.22,-17.66 -63.39,-33.8 -96.69,-47.9 -0.6,-0.26 -1.27,-0.48 -1.87,-0.72 -10.78,-4.54 -21.74,-8.77 -32.75,-12.91 -73,-27.53 -150.31,-46.32 -230.64,-55.02 47.61,-101.49 133.46,-176.25 237.8,-224.64 10.81,-5.02 21.85,-9.69 33.04,-14.13 355.56,-141.49 888.52,2.1 888.52,416.07 0,284.28 -169.34,376.81 -381.04,418.86" /></g></g><g
         id="g96"><g
           clip-path="url(#clipPath102)"
           id="g98"><path
             id="path110"
             style="fill:url(#linearGradient108);fill-opacity:1;fill-rule:nonzero;stroke:none"
             d="M 3775.51,2529.17 H 3462.9 v 324.38 h 99.68 c -41.69,105.32 -65.29,219.58 -66.99,339.2 -140.71,0 -281.16,0 -418.53,0 v -526.16 c 99.22,-41.97 188.58,-102.7 263.62,-177.73 75.07,-74.94 135.88,-164.3 177.77,-263.55 4.91,-11.64 9.54,-23.44 13.94,-35.35 h 407.52 c 0,80.81 0,142.41 0,207.41 -59.26,37.77 -114.26,81.63 -163.71,131.08 -0.23,0.23 -0.46,0.49 -0.69,0.72" /></g></g><g
         id="g112"><g
           clip-path="url(#clipPath118)"
           id="g114"><path
             id="path128"
             style="fill:url(#linearGradient126);fill-opacity:1;fill-rule:nonzero;stroke:none"
             d="m 3495.59,3192.75 c 1.7,-119.62 25.3,-233.88 66.99,-339.2 h 438.83 c 0,127.2 0,214.13 0,339.2 -165.81,0 -336.02,0 -505.82,0" /></g></g><g
         id="g130"><g
           clip-path="url(#clipPath136)"
           id="g132"><path
             id="path146"
             style="fill:url(#linearGradient144);fill-opacity:1;fill-rule:nonzero;stroke:none"
             d="m 3776.2,2528.45 c 49.45,-49.45 104.45,-93.31 163.71,-131.08 0,40.74 0,82.79 0,131.8 h -164.4 c 0.23,-0.23 0.46,-0.49 0.69,-0.72" /></g></g><g
         id="g148"><g
           clip-path="url(#clipPath154)"
           id="g150"><path
             id="path164"
             style="fill:url(#linearGradient162);fill-opacity:1;fill-rule:nonzero;stroke:none"
             d="m 3340.68,2488.86 c -75.04,75.03 -164.4,135.76 -263.62,177.73 v -957.86 c 129.32,0 258.64,0 385.84,0 v 481.23 h 69.49 c -4.4,11.91 -9.03,23.71 -13.94,35.35 -41.89,99.25 -102.7,188.61 -177.77,263.55" /></g></g><g
         id="g166"><g
           clip-path="url(#clipPath172)"
           id="g168"><path
             id="path182"
             style="fill:url(#linearGradient180);fill-opacity:1;fill-rule:nonzero;stroke:none"
             d="m 486.23,2479.79 c 26.497,26.48 54.786,51.12 84.485,74.05 -15.727,3.16 -32,4.86 -48.649,4.86 -33.984,0 -66.371,-6.89 -95.839,-19.35 -25.805,-10.92 -49.352,-26.11 -69.778,-44.7 -2.89,-2.61 -5.711,-5.32 -8.469,-8.06 -0.203,-0.2 -0.386,-0.42 -0.589,-0.62 -19.266,-17.51 -41.36,-31.9 -65.438,-42.65 0,-94.69 0,-189.25 0,-283.88 5.102,14.06 10.524,27.98 16.317,41.68 44.304,104.97 108.593,199.44 187.96,278.67" /></g></g><g
         id="g184"><g
           clip-path="url(#clipPath190)"
           id="g186"><path
             id="path200"
             style="fill:url(#linearGradient198);fill-opacity:1;fill-rule:nonzero;stroke:none"
             d="m 1106.46,3168.59 c -17.36,-20.87 -35.65,-40.96 -54.83,-60.13 -79.353,-79.31 -173.853,-143.58 -278.767,-187.96 -38.297,-16.2 -78.031,-29.67 -118.855,-40.35 -71.074,-18.61 -145.641,-28.58 -222.52,-28.58 -30.879,0 -61.355,1.63 -91.398,4.74 1.754,-1.47 3.594,-2.83 5.289,-4.34 0.879,-0.9 1.711,-1.85 2.601,-2.74 3.379,-3.37 6.872,-6.62 10.45,-9.79 19.968,-17.79 42.808,-32.39 67.797,-42.96 29.468,-12.46 61.855,-19.35 95.839,-19.35 34,0 66.387,6.89 95.829,19.35 14.015,5.93 27.14,13.4 39.707,21.75 1.238,0.84 2.586,1.54 3.851,2.4 8.426,5.84 16.59,12.01 24.238,18.81 3.567,3.17 7.071,6.42 10.438,9.79 0.918,0.89 1.75,1.84 2.644,2.74 0.661,0.6 1.434,1.15 2.125,1.74 19.465,16.96 41.516,31 65.641,41.19 29.469,12.48 61.84,19.36 95.824,19.36 34.016,0 66.387,-6.88 95.828,-19.36 29.469,-12.44 55.979,-30.47 78.259,-52.74 22.29,-22.25 40.31,-48.75 52.76,-78.2 3.74,-8.88 6.82,-18.11 9.52,-27.48 2.56,0.03 5.09,0.2 7.64,0.2 121.08,0 236.48,-24.55 341.39,-68.95 6.22,-2.61 12.23,-5.53 18.35,-8.28 3.56,217.75 -116.44,437.54 -359.65,509.14" /></g></g><g
         id="g202"><g
           clip-path="url(#clipPath208)"
           id="g204"><path
             id="path216"
             style="fill:url(#linearGradient214);fill-opacity:1;fill-rule:nonzero;stroke:none"
             d="m 661.453,1708.73 v 436.73 h 197.145 l 254.422,-436.73 h 423.99 35.68 l -168.71,271.97 c -59.83,12.58 -117.59,30.71 -172.68,53.98 -113.25,47.91 -215.17,117.2 -300.796,202.79 -59.254,59.17 -110.488,126.37 -152.438,199.57 -3.851,1.4 -7.761,2.64 -11.527,4.22 -24.152,10.19 -46.203,24.29 -65.695,41.26 -1.324,1.18 -2.789,2.24 -4.114,3.45 -0.203,0.2 -0.375,0.42 -0.601,0.62 -2.734,2.74 -5.551,5.45 -8.457,8.06 -8.223,7.48 -17.074,14.25 -26.219,20.56 -13.629,9.4 -28.133,17.59 -43.558,24.14 -15.008,6.35 -30.821,11.21 -47.18,14.49 -29.699,-22.93 -57.988,-47.57 -84.485,-74.05 -79.367,-79.23 -143.656,-173.7 -187.96,-278.67 -5.793,-13.7 -11.215,-27.62 -16.317,-41.68 0,-150.23 0,-300.53 0,-450.71 122.953,0 252.274,0 379.5,0" /></g></g><g
         id="g218"><g
           clip-path="url(#clipPath224)"
           id="g220"><g
             clip-path="url(#clipPath230)"
             id="g226"><path
               id="path240"
               style="fill:url(#linearGradient238);fill-opacity:1;fill-rule:nonzero;stroke:none"
               d="m 2296,2274 v 1 h -10 v 1 h -10 v 1 h -11 v 1 h -13 v 1 h -14 v 1 h -14 v 1 h -15 v 1 h -10 v 1 h -11 v 1 h -11 v 1 h -9 v 1 h -8 v 1 h -8 v 1 h -8 v 1 h -8 v 1 h -8 v 1 h -7 v 1 h -6 v 1 h -6 v 1 h -6 v 1 h -6 v 1 h -6 v 1 h -6 v 1 h -6 v 1 h -6 v 1 h -4 v 1 h -5 v 1 h -5 v 1 h -5 v 1 h -5 v 1 h -4 v 1 h -5 v 1 h -4 v 1 h -4 v 1 h -4 v 1 h -4 v 1 h -4 v 1 h -4 v 1 h -3 v 1 h -4 v 1 h -3 v 1 h -4 v 1 h -4 v 1 h -3 v 1 h -4 v 1 h -3 v 1 h -3 v 1 h -3 v 1 h -3 v 1 h -3 v 1 h -3 v 1 h -3 v 1 h -3 v 1 h -3 v 1 h -3 v 1 h -3 v 1 h -3 v 1 h -2 v 1 h -3 v 1 h -2 v 1 h -3 v 1 h -2 v 1 h -2 v 1 h -3 v 1 h -2 v 1 h -3 v 1 h -2 v 1 h -3 v 1 h -2 v 1 h -3 v 1 h -2 v 1 h -2 v 1 h -2 v 1 h -2 v 1 h -3 v 1 h -2 v 1 h -2 v 1 h -2 v 1 h -2 v 1 h -2 v 1 h -2 v 1 h -2 v 1 h -2 v 1 h -2 v 1 h -2 v 1 h -2 v 1 h -2 v 1 h -2 v 1 h -2 v 1 h -1 v 1 h -2 v 1 h -2 v 1 h -1 v 1 h -2 v 1 h -2 v 1 h -1 v 1 h -2 v 1 h -2 v 1 h -2 v 1 h -1 v 1 h -2 v 1 h -2 v 1 h -1 v 1 h -2 v 1 h -2 v 1 h -1 v 1 h -2 v 1 h -1 v 1 h -2 v 1 h -1 v 1 h -1 v 1 h -2 v 1 h -1 v 1 h -2 v 1 h -1 v 1 h -1 v 1 h -2 v 1 h -1 v 1 h -2 v 1 h -1 v 1 h -1 v 1 h -2 v 1 h -1 v 1 h -2 v 1 h -1 v 1 h -1 v 1 h -2 v 1 h -1 v 1 h -1 v 1 h -1 v 1 h -1 v 1 h -1 v 1 h -2 v 1 h -1 v 1 h -1 v 1 h -1 v 1 h -1 v 1 h -1 v 1 h -2 v 1 h -1 v 1 h -1 v 1 h -1 v 1 h -1 v 1 h -1 v 1 h -2 v 1 h -1 v 1 h -1 v 1 h -1 v 1 h -1 v 1 h -1 v 1 h -1 v 1 h -1 v 1 h -1 v 1 h -1 v 1 h -1 v 1 h -1 v 1 h -1 v 1 h -1 v 1 h -1 v 1 h -1 v 1 h -1 v 1 h -1 v 1 h -1 v 2 h -1 v 1 h -1 v 1 h -1 v 1 h -1 v 1 h -1 v 1 h -1 v 1 h -1 v 1 h -1 v 1 h -1 v 1 h -1 v 1 h -1 v 2 h -1 v 1 h -1 v 1 h -1 v 1 h -1 v 2 h -1 v 1 h -1 v 1 h -1 v 1 h -1 v 2 h -1 v 1 h -1 v 1 h -1 v 2 h -1 v 1 h -1 v 1 h -1 v 1 h -1 v 2 h -1 v 1 h -1 v 1 h -1 v 1 h -1 v 2 h -1 v 1 h -1 v 2 h -1 v 2 h -1 v 1 h -1 v 2 h -1 v 1 h -1 v 2 h -1 v 1 h -1 v 2 h -1 v 2 h -1 v 1 h -1 v 2 h -1 v 1 h -1 v 2 h -1 v 1 h -1 v 2 h -1 v 2 h -1 v 1 h -1 v 2 h -1 v 2 h -1 v 2 h -1 v 2 h -1 v 2 h -1 v 2 h -1 v 2 h -1 v 2 h -1 v 2 h -1 v 2 h -1 v 2 h -1 v 2 h -1 v 2 h -1 v 2 h -1 v 2 h -1 v 2 h -1 v 2 h -1 v 3 h -1 v 2 h -1 v 3 h -1 v 2 h -1 v 3 h -1 v 2 h -1 v 3 h -1 v 3 h -1 v 2 h -1 v 3 h -1 v 2 h -1 v 3 h -1 v 3 h -1 v 3 h -1 v 3 h -1 v 4 h -1 v 3 h -1 v 4 h -1 v 3 h -1 v 4 h -1 v 3 h -1 v 4 h -1 v 3 h -1 v 4 h -1 v 5 h -1 v 6 h -1 v 5 h -1 v 5 h -1 v 5 h -1 v 5 h -1 v 5 h -1 v 6 h -1 v 9 h -1 v 8 h -1 v 9 h -1 v 8 h -1 v 13 h -1 v 17 h -1 v 61 h 1 v 11 h 1 v 11 h 1 v 10 h 1 v 8 h 1 v 6 h 1 v 6 h 1 v 5 h 1 v 6 h 1 v 6 h 1 v 5 h 1 v 4 h 1 v 3 h 1 v 4 h 1 v 4 h 1 v 4 h 1 v 4 h 1 v 4 h 1 v 3 h 1 v 4 h 1 v 3 h 1 v 2 h 1 v 3 h 1 v 3 h 1 v 3 h 1 v 3 h 1 v 3 h 1 v 3 h 1 v 2 h 1 v 3 h 1 v 3 h 1 v 2 h 1 v 3 h 1 v 2 h 1 v 2 h 1 v 2 h 1 v 2 h 1 v 3 h 1 v 2 h 1 v 2 h 1 v 2 h 1 v 3 h 1 v 2 h 1 v 2 h 1 v 2 h 1 v 2 h 1 v 2 h 1 v 2 h 1 v 1 h 1 v 2 h 1 v 2 h 1 v 2 h 1 v 2 h 1 v 2 h 1 v 1 h 1 v 2 h 1 v 2 h 1 v 2 h 1 v 2 h 1 v 2 h 1 v 1 h 1 v 2 h 1 v 1 h 1 v 2 h 1 v 1 h 1 v 2 h 1 v 1 h 1 v 2 h 1 v 1 h 1 v 2 h 1 v 1 h 1 v 2 h 1 v 1 h 1 v 2 h 1 v 1 h 1 v 2 h 1 v 1 h 1 v 2 h 1 v 1 h 1 v 2 h 1 v 1 h 1 v 1 h 1 v 1 h 1 v 2 h 1 v 1 h 1 v 1 h 1 v 2 h 1 v 1 h 1 v 1 h 1 v 1 h 1 v 2 h 1 v 1 h 1 v 1 h 1 v 2 h 1 v 1 h 1 v 1 h 1 v 1 h 1 v 2 h 1 v 1 h 1 v 1 h 1 v 1 h 1 v 1 h 1 v 1 h 1 v 1 h 1 v 2 h 1 v 1 h 1 v 1 h 1 v 1 h 1 v 1 h 1 v 1 h 1 v 1 h 1 v 1 h 1 v 1 h 1 v 1 h 1 v 2 h 1 v 1 h 1 v 1 h 1 v 1 h 1 v 1 h 1 v 1 h 1 v 1 h 1 v 1 h 1 v 1 h 1 v 1 h 1 v 1 h 1 v 1 h 1 v 1 h 1 v 1 h 1 v 1 h 1 v 1 h 1 v 1 h 2 v 1 h 1 v 1 h 1 v 1 h 1 v 1 h 1 v 1 h 1 v 1 h 1 v 1 h 1 v 1 h 1 v 1 h 1 v 1 h 1 v 1 h 1 v 1 h 1 v 1 h 1 v 1 h 2 v 1 h 1 v 1 h 1 v 1 h 1 v 1 h 2 v 1 h 1 v 1 h 1 v 1 h 1 v 1 h 1 v 1 h 2 v 1 h 1 v 1 h 1 v 1 h 1 v 1 h 1 v 1 h 2 v 1 h 1 v 1 h 1 v 1 h 1 v 1 h 2 v 1 h 1 v 1 h 1 v 1 h 2 v 1 h 1 v 1 h 1 v 1 h 2 v 1 h 1 v 1 h 2 v 1 h 1 v 1 h 1 v 1 h 2 v 1 h 1 v 1 h 2 v 1 h 1 v 1 h 1 v 1 h 2 v 1 h 1 v 1 h 2 v 1 h 1 v 1 h 2 v 1 h 1 v 1 h 2 v 1 h 1 v 1 h 2 v 1 h 1 v 1 h 2 v 1 h 2 v 1 h 1 v 1 h 2 v 1 h 1 v 1 h 2 v 1 h 2 v 1 h 1 v 1 h 2 v 1 h 1 v 1 h 2 v 1 h 2 v 1 h 2 v 1 h 1 v 1 h 2 v 1 h 2 v 1 h 2 v 1 h 2 v 1 h 2 v 1 h 1 v 1 h 2 v 1 h 2 v 1 h 2 v 1 h 2 v 1 h 2 v 1 h 1 v 1 h 2 v 1 h 2 v 1 h 2 v 1 h 3 v 1 h 2 v 1 h 2 v 1 h 2 v 1 h 2 v 1 h 2 v 1 h 2 v 1 h 2 v 1 h 3 v 1 h 2 v 1 h 2 v 1 h 2 v 1 h 2 v 1 h 3 v 1 h 2 v 1 h 3 v 1 h 2 v 1 h 3 v 1 h 2 v 1 h 2 v 1 h 3 v 1 h 2 v 1 h 3 v 1 h 2 v 1 h 3 v 1 h 3 v 1 h 2 v 1 h 3 v 1 h 3 v 1 h 3 v 1 h 3 v 1 h 3 v 1 h 3 v 1 h 3 v 1 h 3 v 1 h 3 v 1 h 3 v 1 h 3 v 1 h 4 v 1 h 3 v 1 h 4 v 1 h 3 v 1 h 4 v 1 h 3 v 1 h 4 v 1 h 3 v 1 h 5 v 1 h 4 v 1 h 4 v 1 h 5 v 1 h 4 v 1 h 4 v 1 h 5 v 1 h 4 v 1 h 6 v 1 h 5 v 1 h 6 v 1 h 5 v 1 h 6 v 1 h 5 v 1 h 7 v 1 h 8 v 1 h 8 v 1 h 7 v 1 h 9 v 1 h 12 v 1 h 12 v 1 h 16 v 1 h 76 v -1 h 19 v -1 h 11 v -1 h 10 v -1 h 10 v -1 h 9 v -1 h 7 v -1 h 6 v -1 h 7 v -1 h 7 v -1 h 6 v -1 h 5 v -1 h 5 v -1 h 6 v -1 h 5 v -1 h 5 v -1 h 5 v -1 h 4 v -1 h 4 v -1 h 4 v -1 h 4 v -1 h 4 v -1 h 4 v -1 h 4 v -1 h 4 v -1 h 4 v -1 h 4 v -1 h 3 v -1 h 3 v -1 h 4 v -1 h 3 v -1 h 3 v -1 h 3 v -1 h 4 v -1 h 3 v -1 h 3 v -1 h 3 v -1 h 3 v -1 h 3 v -1 h 3 v -1 h 3 v -1 h 2 v -1 h 3 v -1 h 3 v -1 h 3 v -1 h 2 v -1 h 3 v -1 h 1 v -1 h 1 v -4 h 1 v -3 h 1 v -4 h 1 v -3 h 1 v -4 h 1 v -5 h 1 v -4 h 1 v -4 h 1 v -4 h 1 v -4 h 1 v -4 h 1 v -5 h 1 v -4 h 1 v -4 h 1 v -4 h 1 v -5 h 1 v -5 h 1 v -6 h 1 v -5 h 1 v -6 h 1 v -6 h 1 v -5 h 1 v -6 h 1 v -5 h 1 v -6 h 1 v -5 h 1 v -6 h 1 v -8 h 1 v -10 h 1 v -9 h 1 v -9 h 1 v -10 h 1 v -9 h 1 v -9 h 1 v -16 h 1 v -21 h 1 v -74 h -1 v -17 h -1 v -15 h -1 v -14 h -1 v -9 h -1 v -9 h -1 v -9 h -1 v -9 h -1 v -8 h -1 v -7 h -1 v -6 h -1 v -7 h -1 v -7 h -1 v -6 h -1 v -5 h -1 v -4 h -77 v 16 h -1 v 6 h -1 v 5 h -1 v 5 h -1 v 4 h -1 v 3 h -1 v 3 h -1 v 3 h -1 v 3 h -1 v 2 h -1 v 2 h -1 v 2 h -1 v 2 h -1 v 2 h -1 v 2 h -1 v 2 h -1 v 2 h -1 v 2 h -1 v 1 h -1 v 1 h -1 v 2 h -1 v 1 h -1 v 2 h -1 v 1 h -1 v 2 h -1 v 1 h -1 v 1 h -1 v 1 h -1 v 1 h -1 v 2 h -1 v 1 h -1 v 1 h -1 v 1 h -1 v 1 h -1 v 1 h -1 v 1 h -1 v 1 h -1 v 1 h -1 v 1 h -1 v 1 h -1 v 1 h -1 v 1 h -2 v 1 h -1 v 1 h -1 v 1 h -1 v 1 h -1 v 1 h -1 v 1 h -2 v 1 h -1 v 1 h -2 v 1 h -1 v 1 h -1 v 1 h -2 v 1 h -1 v 1 h -2 v 1 h -1 v 1 h -2 v 1 h -2 v 1 h -1 v 1 h -2 v 1 h -2 v 1 h -2 v 1 h -2 v 1 h -1 v 1 h -2 v 1 h -3 v 1 h -2 v 1 h -2 v 1 h -2 v 1 h -2 v 1 h -3 v 1 h -2 v 1 h -3 v 1 h -3 v 1 h -3 v 1 h -2 v 1 h -3 v 1 h -3 v 1 h -4 v 1 h -4 v 1 h -3 v 1 h -4 v 1 h -5 v 1 h -5 v 1 h -5 v 1 h -5 v 1 h -7 v 1 h -8 v 1 h -11 v 1 h -49 v -1 h -9 v -1 h -10 v -1 h -6 v -1 h -6 v -1 h -6 v -1 h -4 v -1 h -5 v -1 h -4 v -1 h -5 v -1 h -3 v -1 h -4 v -1 h -3 v -1 h -3 v -1 h -4 v -1 h -3 v -1 h -2 v -1 h -3 v -1 h -3 v -1 h -3 v -1 h -2 v -1 h -3 v -1 h -2 v -1 h -2 v -1 h -3 v -1 h -2 v -1 h -2 v -1 h -2 v -1 h -2 v -1 h -2 v -1 h -2 v -1 h -2 v -1 h -2 v -1 h -1 v -1 h -2 v -1 h -2 v -1 h -2 v -1 h -1 v -1 h -2 v -1 h -1 v -1 h -2 v -1 h -2 v -1 h -1 v -1 h -2 v -1 h -1 v -1 h -2 v -1 h -1 v -1 h -1 v -1 h -1 v -1 h -2 v -1 h -1 v -1 h -1 v -1 h -1 v -1 h -2 v -1 h -1 v -1 h -1 v -1 h -1 v -1 h -1 v -1 h -1 v -1 h -1 v -1 h -1 v -1 h -1 v -1 h -1 v -1 h -1 v -1 h -1 v -1 h -1 v -1 h -1 v -1 h -1 v -1 h -1 v -1 h -1 v -1 h -1 v -2 h -1 v -1 h -1 v -1 h -1 v -1 h -1 v -1 h -1 v -2 h -1 v -1 h -1 v -2 h -1 v -1 h -1 v -2 h -1 v -1 h -1 v -2 h -1 v -2 h -1 v -1 h -1 v -2 h -1 v -2 h -1 v -2 h -1 v -2 h -1 v -2 h -1 v -3 h -1 v -2 h -1 v -3 h -1 v -3 h -1 v -3 h -1 v -4 h -1 v -3 h -1 v -6 h -1 v -6 h -1 v -27 h 1 v -8 h 1 v -7 h 1 v -3 h 1 v -3 h 1 v -4 h 1 v -3 h 1 v -3 h 1 v -2 h 1 v -2 h 1 v -2 h 1 v -2 h 1 v -2 h 1 v -2 h 1 v -2 h 1 v -1 h 1 v -2 h 1 v -1 h 1 v -1 h 1 v -2 h 1 v -1 h 1 v -1 h 1 v -2 h 1 v -1 h 1 v -1 h 1 v -1 h 1 v -1 h 1 v -1 h 1 v -1 h 1 v -1 h 1 v -1 h 1 v -1 h 1 v -1 h 1 v -1 h 1 v -1 h 1 v -1 h 1 v -1 h 1 v -1 h 2 v -1 h 1 v -1 h 1 v -1 h 2 v -1 h 1 v -1 h 1 v -1 h 2 v -1 h 1 v -1 h 1 v -1 h 2 v -1 h 2 v -1 h 2 v -1 h 1 v -1 h 2 v -1 h 2 v -1 h 2 v -1 h 1 v -1 h 2 v -1 h 3 v -1 h 2 v -1 h 2 v -1 h 2 v -1 h 3 v -1 h 2 v -1 h 2 v -1 h 3 v -1 h 3 v -1 h 2 v -1 h 3 v -1 h 3 v -1 h 3 v -1 h 3 v -1 h 3 v -1 h 4 v -1 h 3 v -1 h 4 v -1 h 3 v -1 h 4 v -1 h 5 v -1 h 4 v -1 h 4 v -1 h 5 v -1 h 5 v -1 h 5 v -1 h 5 v -1 h 5 v -1 h 6 v -1 h 7 v -1 h 6 v -1 h 6 v -1 h 7 v -1 h 8 v -1 h 7 v -1 h 8 v -1 h 9 v -1 h 8 v -1 h 9 v -1 h 10 v -1 h 9 v -1 h 8 v -1 h 9 v -1 h 9 v -1 h 8 v -1 h 8 v -1 h 8 v -1 h 8 v -1 h 8 v -1 h 7 v -1 h 8 v -1 h 7 v -1 h 7 v -1 h 7 v -1 h 6 v -1 h 7 v -1 h 7 v -1 h 6 v -1 h 6 v -1 h 6 v -1 h 6 v -1 h 6 v -1 h 5 v -1 h 6 v -1 h 5 v -1 h 5 v -1 h 4 v -4 h -1 v -2 h -1 v -3 h -1 v -3 h -1 v -2 h -1 v -3 h -1 v -2 h -1 v -3 h -1 v -2 h -1 v -3 h -1 v -2 h -1 v -2 h -1 v -3 h -1 v -2 h -1 v -2 h -1 v -2 h -1 v -2 h -1 v -3 h -1 v -2 h -1 v -2 h -1 v -2 h -1 v -2 h -1 v -3 h -1 v -2 h -1 v -2 h -1 v -2 h -1 v -2 h -1 v -2 h -1 v -2 h -1 v -2 h -1 v -2 h -1 v -2 h -1 v -2 h -1 v -2 h -1 v -2 h -1 v -2 h -1 v -2 h -1 v -2 h -1 v -2 h -1 v -2 h -1 v -2 h -1 v -2 h -1 v -2 h -1 v -2 h -1 v -2 h -1 v -2 h -1 v -1 h -1 v -2 h -1 v -2 h -1 v -2 h -1 v -2 h -1 v -2 h -1 v -1 h -1 v -2 h -1 v -2 h -1 v -2 h -1 v -2 h -1 v -1 h -1 v -2 h -1 v -2 h -1 v -2 h -1 v -2 h -1 v -1 h -1 v -2 h -1 v -2 h -1 v -1 h -1 v -2 h -1 v -2 h -1 v -1 h -1 v -2 h -1 v -1 h -1 v -2 h -1 v -2 h -1 v -1 h -1 v -2 h -1 v -2 h -1 v -1 h -1 v -2 h -1 v -2 h -1 v -1 h -1 v -2 h -1 v -1 h -1 v -2 h -1 v -2 h -1 v -1 h -1 v -2 h -1 v -1 h -1 v -2 h -1 v -1 h -1 v -2 h -1 v -1 h -1 v -2 h -1 v -1 h -1 v -2 h -1 v -1 h -1 v -2 h -1 v -1 h -1 v -2 h -1 v -1 h -1 v -2 h -1 v -1 h -1 v -2 h -1 v -1 h -1 v -2 h -1 v -1 h -1 v -1 h -1 v -2 h -1 v -1 h -1 v -1 h -1 v -2 h -1 v -1 h -1 v -2 h -1 v -1 h -1 v -1 h -1 v -2 h -1 v -1 h -1 v -1 h -1 v -2 h -1 v -1 h -1 v -2 h -1 v -1 h -1 v -1 h -1 v -2 h -1 v -1 h -1 v -1 h -1 v -2 h -1 v -1 h -1 v -1 h -1 v -2 h -1 v -1 h -1 v -1 h -1 v -2 h -1 v -1 h -1 v -1 h -1 v -1 h -1 v -2 h -1 v -1 h -1 v -1 h -1 v -1 h -1 v -2 h -1 v -1 h -1 v -1 h -1 v -1 h -1 v -2 h -1 v -1 h -1 v -1 h -1 v -1 h -1 v -2 h -1 v -1 h -1 v -1 h -1 v -1 h -1 v -2 h -1 v -1 h -1 v -1 h -1 v -1 h -1 v -1 h -1 v -2 h -1 v -1 h -1 v -1 h -1 v -1 h -1 v -1 h -1 v -1 h -1 v -2 h -1 v -1 h -1 v -1 h -1 v -1 h -1 v -1 h -1 v -1 h -1 v -2 h -1 v -1 h -1 v -1 h -1 v -1 h -1 v -1 h -1 v -1 h -1 v -1 h -1 v -2 h -1 v -1" /></g></g></g><g
         id="g242"><g
           clip-path="url(#clipPath248)"
           id="g244"><path
             id="path258"
             style="fill:url(#linearGradient256);fill-opacity:1;fill-rule:nonzero;stroke:none"
             d="m 1966.55,2162.42 c -12.36,0 -24.67,0 -36.77,0 -89.62,0 -174.09,0 -267.7,0 -0.95,-73.99 13.82,-139.36 40.59,-196.39 80.33,8.7 157.64,27.49 230.64,55.02 11.01,4.14 21.97,8.37 32.75,12.91 0.6,0.24 1.27,0.46 1.87,0.72 33.3,14.1 65.47,30.24 96.69,47.9 -22.2,21.33 -35.77,47.84 -35.77,79.84 -21.27,0 -41.92,0 -62.3,0" /></g></g><g
         id="g260"><g
           clip-path="url(#clipPath266)"
           id="g262"><path
             id="path276"
             style="fill:url(#linearGradient274);fill-opacity:1;fill-rule:nonzero;stroke:none"
             d="m 1466.11,2659.45 c -6.12,2.75 -12.13,5.67 -18.35,8.28 -104.91,44.4 -220.31,68.95 -341.39,68.95 -2.55,0 -5.08,-0.17 -7.64,-0.2 6.26,-21.74 9.83,-44.64 9.83,-68.39 0,-33.99 -6.9,-66.37 -19.35,-95.87 -12.45,-29.45 -30.47,-55.96 -52.76,-78.2 -22.28,-22.28 -48.79,-40.31 -78.259,-52.76 -29.441,-12.48 -61.812,-19.37 -95.828,-19.37 -29.64,0 -57.961,5.53 -84.297,15.15 41.95,-73.2 93.184,-140.4 152.438,-199.57 85.626,-85.59 187.546,-154.88 300.796,-202.79 55.09,-23.27 112.85,-41.4 172.68,-53.98 l -157.42,253.78 c 143.82,97.48 216.85,260.65 219.55,424.97" /></g></g><g
         id="g278"><g
           clip-path="url(#clipPath284)"
           id="g280"><path
             id="path294"
             style="fill:url(#linearGradient292);fill-opacity:1;fill-rule:nonzero;stroke:none"
             d="m 932.805,3192.75 c -78.059,0 -156.664,0 -235.356,0 -139.258,0 -278.672,0 -415.496,0 0,-100.06 0,-200 0,-299.93 21.133,-9.41 40.641,-21.8 58.137,-36.51 30.043,-3.11 60.519,-4.74 91.398,-4.74 76.879,0 151.446,9.97 222.52,28.58 40.824,10.68 80.558,24.15 118.855,40.35 104.914,44.38 199.414,108.65 278.767,187.96 19.18,19.17 37.47,39.26 54.83,60.13 -52.21,15.37 -110.116,23.94 -173.655,24.16" /></g></g></g></g></svg>