<?xml version="1.0" standalone="no"?>
<!DOCTYPE svg PUBLIC "-//W3C//DTD SVG 20010904//EN"
 "http://www.w3.org/TR/2001/REC-SVG-20010904/DTD/svg10.dtd">
<svg version="1.0" xmlns="http://www.w3.org/2000/svg"
 width="512.000000pt" height="512.000000pt" viewBox="0 0 512.000000 512.000000"
 preserveAspectRatio="xMidYMid meet">

<g transform="translate(0.000000,512.000000) scale(0.100000,-0.100000)"
fill="#000000" stroke="none">
<path d="M2493 3502 c-143 -51 -212 -151 -200 -293 13 -157 101 -226 312 -248
107 -11 139 -22 160 -54 50 -76 -101 -138 -213 -87 -26 12 -46 29 -52 45 -9
25 -11 25 -116 25 l-107 0 6 -51 c15 -127 122 -214 292 -239 132 -20 289 30
360 113 66 77 81 197 35 286 -45 89 -102 114 -348 152 -85 13 -115 33 -115 77
0 60 65 99 150 89 45 -5 93 -38 93 -64 0 -10 25 -13 110 -13 124 0 119 -4 94
79 -21 71 -77 131 -157 167 -82 37 -223 45 -304 16z"/>
<path d="M1450 3420 c0 -101 7 -114 77 -146 54 -24 95 -18 154 23 68 46 137
55 187 24 101 -64 95 -205 -11 -260 -56 -29 -94 -24 -160 20 -87 57 -148 58
-214 1 l-33 -27 -6 -217 -7 -218 116 0 117 0 0 130 0 130 60 0 60 0 76 -130
77 -130 134 0 c104 0 134 3 130 13 -2 6 -43 74 -91 150 -47 76 -86 142 -86
145 0 4 17 23 36 42 69 68 97 161 82 270 -15 114 -83 202 -188 246 -39 16 -78
19 -277 22 l-233 4 0 -92z"/>
<path d="M3130 3065 l0 -445 115 0 115 0 0 143 0 143 142 -1 c166 0 154 -10
143 122 l-7 83 -139 0 -139 0 0 100 0 100 160 0 160 0 0 100 0 100 -275 0
-275 0 0 -445z"/>
<path d="M1277 2253 c-4 -3 -7 -60 -7 -125 l0 -118 30 0 c29 0 30 1 30 50 0
43 3 50 20 50 22 0 44 -30 54 -72 5 -23 12 -28 35 -28 l29 0 -14 45 c-7 25
-16 50 -18 54 -3 5 1 22 10 39 21 44 9 81 -32 98 -34 14 -125 19 -137 7z m111
-45 c18 -18 14 -46 -7 -58 -38 -20 -51 -13 -51 30 0 35 3 40 23 40 13 0 28 -5
35 -12z"/>
<path d="M2047 2254 c-4 -4 -7 -16 -7 -26 0 -15 6 -19 28 -16 19 2 27 9 27 23
0 20 -33 33 -48 19z"/>
<path d="M2685 2249 c-28 -17 -35 -29 -35 -66 0 -36 25 -58 78 -69 37 -8 57
-27 48 -50 -5 -13 -17 -16 -66 -12 -55 4 -70 -2 -70 -27 0 -11 87 -26 120 -20
102 17 98 131 -5 151 -45 8 -62 28 -44 50 10 12 23 14 55 9 33 -5 43 -3 48 11
4 9 4 19 1 22 -11 12 -111 12 -130 1z"/>
<path d="M3038 2248 c-8 -22 3 -38 27 -38 24 0 35 16 28 38 -3 6 -15 12 -28
12 -12 0 -25 -6 -27 -12z"/>
<path d="M1497 2184 c-4 -4 -7 -38 -7 -76 0 -56 4 -72 21 -89 16 -16 28 -19
47 -14 15 4 44 6 65 6 l37 -1 0 90 c0 89 0 90 -25 90 -24 0 -25 -2 -25 -65 0
-55 -3 -66 -21 -76 -30 -16 -38 -3 -41 71 -3 57 -6 65 -23 68 -12 2 -24 0 -28
-4z"/>
<path d="M1710 2170 c-36 -36 -20 -69 45 -90 50 -16 39 -35 -19 -33 -38 1 -46
-2 -46 -17 0 -35 121 -34 143 1 19 30 0 66 -43 83 -50 20 -53 40 -5 34 24 -3
36 1 40 11 14 35 -82 44 -115 11z"/>
<path d="M1880 2170 c-36 -36 -20 -69 45 -90 50 -16 39 -35 -19 -33 -38 1 -46
-2 -46 -17 0 -31 101 -36 138 -7 6 5 12 23 12 39 0 25 -6 32 -45 49 -55 24
-58 42 -8 37 24 -2 38 2 41 11 12 35 -85 44 -118 11z"/>
<path d="M2047 2183 c-4 -3 -7 -44 -7 -90 0 -82 0 -83 25 -83 25 0 25 1 25 90
0 81 -2 90 -18 90 -10 0 -22 -3 -25 -7z"/>
<path d="M2162 2183 c-15 -3 -22 -10 -20 -21 3 -13 12 -16 42 -14 24 3 42 -1
47 -9 11 -18 -8 -29 -48 -29 -24 0 -37 -7 -49 -25 -33 -50 17 -99 77 -77 16 7
31 7 42 0 22 -12 57 -1 57 18 0 8 -4 14 -10 14 -5 0 -10 25 -10 55 0 84 -32
106 -128 88z m78 -118 c0 -13 -21 -25 -46 -25 -24 0 -16 38 9 42 27 5 37 1 37
-17z"/>
<path d="M2337 2183 c-4 -3 -7 -44 -7 -90 l0 -83 30 0 30 0 0 64 c0 56 3 66
20 71 33 10 40 -3 40 -71 0 -62 1 -64 25 -64 25 0 25 1 25 78 0 47 -5 83 -12
90 -15 15 -53 16 -78 2 -13 -7 -21 -7 -25 0 -7 11 -38 13 -48 3z"/>
<path d="M2885 2166 c-29 -29 -35 -98 -10 -132 28 -40 135 -41 135 -1 0 16 -5
19 -30 13 -41 -8 -75 24 -65 62 8 32 21 42 58 42 22 0 28 4 25 18 -2 12 -15
18 -45 20 -35 3 -48 -2 -68 -22z"/>
<path d="M3047 2183 c-4 -3 -7 -44 -7 -90 0 -82 0 -83 25 -83 25 0 25 1 25 90
0 81 -2 90 -18 90 -10 0 -22 -3 -25 -7z"/>
<path d="M3153 2166 c-23 -20 -28 -32 -28 -69 0 -75 48 -108 125 -87 29 8 38
14 33 26 -4 12 -14 14 -35 10 -31 -6 -68 7 -68 24 0 6 25 10 55 10 l55 0 0 35
c0 71 -79 101 -137 51z m87 -32 c0 -9 -11 -14 -30 -14 -33 0 -39 14 -13 28 21
12 43 5 43 -14z"/>
<path d="M3327 2183 c-4 -3 -7 -44 -7 -90 0 -82 0 -83 25 -83 24 0 25 3 25 60
0 50 3 61 21 70 38 21 49 6 49 -65 0 -63 1 -65 25 -65 26 0 26 0 23 81 -4 98
-14 110 -78 93 -22 -6 -43 -7 -46 -3 -6 11 -28 12 -37 2z"/>
<path d="M3551 2173 c-24 -20 -37 -77 -27 -118 9 -34 64 -58 112 -49 25 5 34
11 34 26 0 15 -6 19 -27 18 -47 -3 -53 -1 -65 25 -16 35 12 75 53 75 24 0 30
4 27 18 -5 25 -77 29 -107 5z"/>
<path d="M3715 2167 c-22 -18 -27 -31 -27 -70 0 -76 42 -106 122 -89 50 11 47
37 -5 37 -22 0 -46 4 -52 8 -27 17 -11 27 41 27 30 0 57 4 60 8 10 16 -15 82
-34 92 -31 17 -77 11 -105 -13z m89 -33 c4 -10 -3 -14 -29 -14 -37 0 -46 13
-18 28 20 12 39 6 47 -14z"/>
<path d="M2570 1807 l0 -43 -39 4 c-32 3 -42 -1 -60 -23 -25 -33 -28 -100 -6
-133 14 -19 24 -21 85 -20 l70 1 0 129 0 128 -25 0 c-23 0 -25 -4 -25 -43z m0
-126 c0 -40 -3 -50 -20 -54 -11 -3 -27 1 -35 10 -31 30 -10 93 30 93 23 0 25
-4 25 -49z"/>
<path d="M1660 1715 l0 -125 30 0 c30 0 30 1 30 55 l0 55 45 0 c33 0 45 4 45
15 0 11 -12 15 -45 15 -45 0 -45 0 -45 35 l0 35 55 0 c48 0 55 2 55 20 0 18
-7 20 -85 20 l-85 0 0 -125z"/>
<path d="M3004 1825 c-4 -9 -2 -21 4 -27 16 -16 47 -5 47 17 0 26 -42 34 -51
10z"/>
<path d="M2898 1812 c-9 -2 -20 -12 -23 -22 -3 -10 -12 -21 -20 -24 -20 -7
-19 -36 0 -36 12 0 15 -13 15 -58 0 -32 5 -63 12 -70 7 -7 32 -12 56 -12 36 0
43 3 40 18 -2 10 -14 18 -31 20 -25 3 -27 6 -27 53 0 46 2 49 25 49 18 0 25 5
25 20 0 15 -7 20 -24 20 -18 0 -26 6 -28 23 -2 15 -9 21 -20 19z"/>
<path d="M1882 1763 c-19 -7 -42 -58 -42 -91 0 -16 9 -41 21 -56 17 -22 28
-26 69 -26 41 0 52 4 69 26 50 64 11 155 -66 153 -21 0 -44 -3 -51 -6z m79
-57 c22 -48 -13 -103 -47 -75 -14 12 -19 80 -7 92 14 15 44 6 54 -17z"/>
<path d="M2050 1693 c0 -88 7 -105 41 -104 13 0 48 1 77 1 l53 1 -3 87 c-3 86
-3 87 -30 90 -27 3 -27 3 -30 -65 -3 -65 -4 -68 -28 -68 -24 0 -25 3 -28 68
-3 64 -4 67 -27 67 -24 0 -25 -2 -25 -77z"/>
<path d="M2250 1680 c0 -89 0 -90 25 -90 24 0 25 2 25 65 0 60 2 65 24 71 39
9 46 -2 46 -72 0 -62 1 -64 25 -64 24 0 25 2 25 71 0 39 -5 79 -10 90 -12 21
-59 26 -91 9 -13 -7 -19 -7 -19 0 0 5 -11 10 -25 10 -25 0 -25 -1 -25 -90z"/>
<path d="M2681 1761 c-27 -17 -6 -36 37 -32 57 4 59 -24 3 -33 -22 -3 -47 -13
-55 -22 -19 -19 -21 -58 -3 -72 19 -16 177 -14 177 3 0 7 -7 15 -15 19 -11 4
-15 21 -15 65 0 49 -4 62 -19 71 -24 12 -91 13 -110 1z m77 -113 c-3 -26 -36
-37 -49 -16 -6 8 -3 17 8 26 26 19 45 15 41 -10z"/>
<path d="M3000 1681 l0 -91 30 0 31 0 -3 88 c-3 87 -3 87 -30 90 l-28 3 0 -90z"/>
<path d="M3115 1745 c-33 -32 -35 -105 -5 -135 29 -29 110 -28 136 1 29 32 26
115 -5 140 -34 28 -96 25 -126 -6z m93 -61 c3 -45 -14 -69 -42 -58 -41 16 -26
108 17 102 18 -2 23 -10 25 -44z"/>
<path d="M3300 1678 c0 -87 0 -88 25 -88 24 0 25 2 25 64 0 49 4 65 16 70 39
15 44 8 44 -64 l0 -70 31 0 31 0 -4 80 c-2 55 -8 84 -17 89 -8 5 -45 9 -83 8
l-68 -1 0 -88z"/>
</g>
</svg>
