<?xml version="1.0" standalone="no"?>
<!DOCTYPE svg PUBLIC "-//W3C//DTD SVG 20010904//EN"
 "http://www.w3.org/TR/2001/REC-SVG-20010904/DTD/svg10.dtd">
<svg version="1.0" xmlns="http://www.w3.org/2000/svg"
 width="275.000000pt" height="275.000000pt" viewBox="0 0 275.000000 275.000000"
 preserveAspectRatio="xMidYMid meet">

<g transform="translate(0.000000,275.000000) scale(0.100000,-0.100000)"
fill="#000000" stroke="none">
<path d="M1313 2272 c-138 -49 -199 -133 -197 -272 2 -163 87 -237 302 -265
59 -7 119 -18 135 -24 37 -15 54 -53 37 -85 -39 -75 -247 -65 -266 11 -6 22
-10 23 -116 23 l-111 0 6 -45 c22 -160 181 -258 395 -242 206 14 339 145 318
311 -19 143 -96 200 -304 226 -153 19 -190 42 -180 111 11 82 208 93 238 14 9
-24 12 -25 116 -25 l106 0 -7 43 c-15 89 -80 168 -170 208 -70 32 -227 37
-302 11z"/>
<path d="M270 2193 l0 -88 36 -29 c65 -52 144 -53 204 -2 17 14 49 31 71 37
34 11 46 10 87 -7 60 -25 92 -71 92 -131 0 -91 -61 -156 -146 -156 -34 0 -55
8 -97 36 -86 59 -137 59 -212 0 l-35 -28 0 -217 0 -218 110 0 110 0 0 130 0
130 63 0 63 0 74 -130 75 -130 134 0 c117 0 132 2 127 16 -3 8 -45 78 -92 154
l-86 140 45 50 c139 155 93 407 -91 497 -57 28 -58 28 -294 31 l-238 4 0 -89z"/>
<path d="M1950 1835 l0 -445 115 0 115 0 0 145 0 145 145 0 146 0 -3 98 -3 97
-142 3 -143 3 0 99 0 100 160 0 160 0 0 100 0 100 -275 0 -275 0 0 -445z"/>
<path d="M94 1017 c-2 -7 -3 -62 -2 -123 l3 -109 28 -3 c26 -3 27 -2 27 47 0
44 3 51 19 51 28 0 48 -23 55 -65 6 -30 11 -35 36 -35 28 0 28 0 18 38 -6 20
-14 45 -19 54 -7 12 -5 27 6 47 21 41 19 58 -10 86 -21 22 -33 25 -90 25 -45
0 -67 -4 -71 -13z m114 -36 c8 -4 12 -19 10 -32 -2 -19 -10 -25 -35 -27 -32
-3 -33 -2 -33 32 0 31 3 36 23 36 12 0 28 -4 35 -9z"/>
<path d="M862 1008 c4 -31 53 -34 53 -3 0 15 -8 21 -28 23 -25 3 -28 0 -25
-20z"/>
<path d="M1489 1009 c-14 -14 -19 -30 -17 -57 3 -34 7 -38 56 -58 63 -25 77
-37 68 -60 -5 -14 -15 -16 -65 -11 -49 5 -60 4 -65 -10 -4 -9 -5 -17 -3 -19
10 -11 96 -19 126 -13 96 20 88 122 -13 148 -75 19 -64 69 13 58 30 -4 41 -1
46 11 8 22 -13 32 -72 32 -40 0 -58 -5 -74 -21z"/>
<path d="M1862 1008 c4 -28 42 -37 52 -13 9 24 -1 35 -30 35 -21 0 -25 -4 -22
-22z"/>
<path d="M319 956 c-2 -2 -2 -42 1 -88 l5 -83 78 -2 77 -1 0 89 c0 88 0 89
-25 89 -23 0 -24 -3 -27 -67 -3 -66 -4 -68 -30 -71 l-28 -3 0 70 c0 68 -1 71
-23 71 -13 0 -26 -2 -28 -4z"/>
<path d="M531 941 c-12 -12 -21 -27 -21 -34 0 -19 29 -42 65 -54 50 -16 38
-38 -18 -36 -41 3 -48 0 -45 -15 2 -13 15 -18 55 -20 70 -4 95 10 91 51 -2 27
-10 35 -45 52 -24 11 -43 23 -43 27 0 4 17 8 38 10 25 2 37 8 37 18 0 11 -13
16 -47 18 -37 2 -51 -1 -67 -17z"/>
<path d="M701 941 c-12 -12 -21 -25 -21 -29 0 -19 30 -47 61 -57 53 -18 44
-41 -14 -38 -41 3 -48 0 -45 -15 2 -13 15 -18 55 -20 70 -4 95 10 91 51 -2 27
-10 35 -45 52 -24 11 -43 23 -43 27 0 5 18 8 41 8 33 0 40 3 37 18 -5 27 -91
29 -117 3z"/>
<path d="M867 954 c-4 -4 -7 -45 -7 -91 l0 -84 28 3 27 3 0 85 c0 78 -2 85
-20 88 -12 2 -24 0 -28 -4z"/>
<path d="M977 953 c-32 -8 -12 -28 33 -33 47 -5 69 -30 26 -30 -67 0 -109 -43
-82 -85 14 -21 22 -23 96 -23 61 0 80 4 80 14 0 8 -4 14 -10 14 -6 0 -10 26
-10 58 0 72 -18 93 -76 91 -21 -1 -47 -3 -57 -6z m83 -112 c0 -20 -32 -37 -50
-26 -14 9 -13 32 3 38 28 12 47 7 47 -12z"/>
<path d="M1160 868 c0 -87 0 -88 25 -88 23 0 24 3 27 68 3 65 4 67 31 70 l27
3 0 -71 0 -71 28 3 c27 3 27 3 27 81 0 58 -4 80 -15 87 -8 5 -45 8 -82 8 l-68
-2 0 -88z"/>
<path d="M1710 942 c-33 -27 -39 -99 -10 -135 20 -25 28 -28 74 -25 39 2 52 7
54 21 3 14 -4 17 -38 17 -34 0 -42 4 -50 25 -17 44 5 75 53 75 20 0 27 5 27
20 0 17 -7 20 -44 20 -27 0 -52 -7 -66 -18z"/>
<path d="M1860 870 c0 -89 0 -90 25 -90 25 0 25 1 25 90 0 89 0 90 -25 90 -25
0 -25 -1 -25 -90z"/>
<path d="M1973 938 c-27 -30 -33 -61 -22 -103 12 -42 34 -55 91 -55 85 0 92
36 8 42 -33 2 -46 8 -48 21 -3 14 5 17 52 17 l56 0 0 34 c0 43 -29 66 -80 66
-25 0 -43 -7 -57 -22z m85 -31 c3 -13 -3 -17 -27 -17 -33 0 -39 8 -19 28 17
17 42 11 46 -11z"/>
<path d="M2144 945 c-3 -7 -4 -45 -2 -86 3 -71 4 -74 28 -74 24 0 25 4 30 65
5 61 6 65 30 65 24 0 25 -3 28 -67 3 -65 4 -68 27 -68 24 0 25 2 25 79 0 51
-4 82 -13 89 -17 15 -148 12 -153 -3z"/>
<path d="M2370 942 c-33 -27 -39 -99 -10 -135 20 -25 28 -28 74 -25 39 2 52 7
54 21 3 14 -4 17 -38 17 -34 0 -42 4 -50 25 -17 44 5 75 53 75 20 0 27 5 27
20 0 17 -7 20 -44 20 -27 0 -52 -7 -66 -18z"/>
<path d="M2535 935 c-33 -32 -35 -105 -5 -135 33 -33 150 -24 138 10 -2 8 -23
14 -54 14 -36 1 -49 5 -49 16 0 11 15 16 59 18 l58 3 -6 31 c-9 47 -33 68 -78
68 -28 0 -46 -7 -63 -25z m83 -17 c20 -20 14 -28 -23 -28 -19 0 -35 4 -35 8 0
12 22 32 35 32 6 0 16 -5 23 -12z"/>
<path d="M1390 580 c0 -40 0 -40 -37 -40 -44 0 -56 -6 -72 -37 -25 -48 -5
-130 33 -138 12 -3 46 -4 76 -2 l55 2 3 128 3 127 -31 0 c-28 0 -30 -2 -30
-40z m0 -130 c0 -47 -2 -50 -25 -50 -34 0 -53 39 -37 75 8 17 20 25 37 25 23
0 25 -3 25 -50z"/>
<path d="M1830 605 c-18 -21 -5 -47 22 -43 26 3 37 36 16 49 -18 12 -24 11
-38 -6z"/>
<path d="M480 484 l0 -125 28 3 c25 3 27 7 30 56 l3 52 45 0 c38 0 45 3 42 18
-2 12 -15 18 -46 20 -39 3 -42 5 -42 33 0 29 1 29 55 29 48 0 55 2 55 20 0 18
-7 20 -85 20 l-85 0 0 -126z"/>
<path d="M1699 568 c-7 -13 -19 -29 -28 -35 -15 -12 -14 -14 2 -27 12 -10 17
-28 17 -68 0 -66 13 -81 67 -76 48 4 60 35 16 40 -26 3 -28 7 -31 51 -3 45 -2
47 22 47 19 0 26 5 26 20 0 15 -7 20 -25 20 -20 0 -25 5 -25 25 0 32 -25 33
-41 3z"/>
<path d="M690 520 c-62 -62 -23 -160 64 -160 36 0 48 5 65 26 28 36 28 102 1
132 -28 30 -101 31 -130 2z m96 -46 c3 -13 3 -36 0 -50 -5 -20 -12 -25 -34
-22 -24 3 -27 8 -30 43 -5 62 50 87 64 29z"/>
<path d="M870 469 c0 -103 5 -109 93 -106 l72 2 3 88 3 87 -30 0 -30 0 -3 -67
c-3 -65 -4 -68 -28 -68 -24 0 -25 3 -28 68 -3 64 -4 67 -27 67 -24 0 -25 -2
-25 -71z"/>
<path d="M1070 449 c0 -88 0 -89 25 -89 24 0 25 2 25 65 0 60 2 65 24 71 39 9
46 -2 46 -72 0 -62 1 -64 25 -64 25 0 25 1 25 79 0 52 -4 82 -13 89 -7 6 -45
11 -85 10 l-72 0 0 -89z"/>
<path d="M1503 533 c-7 -2 -13 -11 -13 -19 0 -10 13 -14 45 -14 33 0 45 -4 45
-15 0 -9 -9 -15 -25 -15 -61 0 -99 -44 -76 -88 10 -18 21 -21 96 -21 77 1 85
3 85 20 0 10 -4 19 -9 19 -5 0 -11 24 -13 54 -6 72 -19 86 -77 85 -25 0 -52
-3 -58 -6z m77 -112 c0 -22 -29 -36 -43 -22 -15 15 0 41 23 41 13 0 20 -7 20
-19z"/>
<path d="M1822 453 c3 -86 3 -88 28 -88 25 0 25 2 28 88 l3 87 -31 0 -31 0 3
-87z"/>
<path d="M1935 515 c-19 -18 -25 -35 -25 -65 0 -56 34 -90 88 -90 55 0 83 25
89 80 7 65 -22 100 -83 100 -34 0 -51 -6 -69 -25z m84 -19 c7 -8 11 -32 9 -53
-3 -33 -6 -38 -28 -38 -35 0 -50 44 -26 79 19 30 29 32 45 12z"/>
<path d="M2120 449 c0 -88 0 -89 25 -89 23 0 24 3 27 68 3 62 5 67 27 70 32 5
41 -12 41 -80 0 -55 1 -58 25 -58 24 0 25 2 25 71 0 103 -5 108 -95 107 l-75
-1 0 -88z"/>
</g>
</svg>
